<svg width="23" height="19" viewBox="0 0 23 19" fill="none" xmlns="http://www.w3.org/2000/svg">
<path d="M11.5 0C13.025 0 14.4875 0.500445 15.5659 1.39124C16.6442 2.28204 17.25 3.49022 17.25 4.75C17.25 6.00978 16.6442 7.21796 15.5659 8.10876C14.4875 8.99955 13.025 9.5 11.5 9.5C9.97501 9.5 8.51247 8.99955 7.43414 8.10876C6.3558 7.21796 5.75 6.00978 5.75 4.75C5.75 3.49022 6.3558 2.28204 7.43414 1.39124C8.51247 0.500445 9.97501 0 11.5 0ZM11.5 11.875C17.8538 11.875 23 14.0006 23 16.625V19H0V16.625C0 14.0006 5.14625 11.875 11.5 11.875Z" fill="#E50000"/>
</svg>
