<svg width="23" height="22" viewBox="0 0 23 22" fill="none" xmlns="http://www.w3.org/2000/svg">
<path d="M11.5 0C13.025 0 14.4875 0.579462 15.5659 1.61091C16.6442 2.64236 17.25 4.04131 17.25 5.5C17.25 6.95869 16.6442 8.35764 15.5659 9.38909C14.4875 10.4205 13.025 11 11.5 11C9.97501 11 8.51247 10.4205 7.43414 9.38909C6.3558 8.35764 5.75 6.95869 5.75 5.5C5.75 4.04131 6.3558 2.64236 7.43414 1.61091C8.51247 0.579462 9.97501 0 11.5 0ZM11.5 13.75C17.8538 13.75 23 16.2112 23 19.25V22H0V19.25C0 16.2112 5.14625 13.75 11.5 13.75Z" fill="#E50000"/>
</svg>
