<svg width="15" height="15" viewBox="0 0 15 15" fill="none" xmlns="http://www.w3.org/2000/svg">
<g clip-path="url(#clip0_462_1238)">
<path fill-rule="evenodd" clip-rule="evenodd" d="M1.63377 3.39125C1.70473 3.21992 1.82491 3.07349 1.9791 2.97047C2.13329 2.86745 2.31458 2.81248 2.50002 2.8125H8.75002C9.99322 2.8125 11.1855 3.30636 12.0646 4.18544C12.9437 5.06451 13.4375 6.2568 13.4375 7.5C13.4375 8.7432 12.9437 9.93549 12.0646 10.8146C11.1855 11.6936 9.99322 12.1875 8.75002 12.1875H3.12502C2.87638 12.1875 2.63792 12.0887 2.4621 11.9129C2.28629 11.7371 2.18752 11.4986 2.18752 11.25C2.18752 11.0014 2.28629 10.7629 2.4621 10.5871C2.63792 10.4113 2.87638 10.3125 3.12502 10.3125H8.75002C9.49594 10.3125 10.2113 10.0162 10.7388 9.48874C11.2662 8.96129 11.5625 8.24592 11.5625 7.5C11.5625 6.75408 11.2662 6.03871 10.7388 5.51126C10.2113 4.98382 9.49594 4.6875 8.75002 4.6875H4.76314L5.35064 5.275C5.52133 5.45189 5.61572 5.68875 5.61347 5.93456C5.61122 6.18037 5.51251 6.41546 5.33861 6.5892C5.1647 6.76294 4.92952 6.86143 4.68371 6.86345C4.4379 6.86547 4.20113 6.77086 4.02439 6.6L1.83689 4.4125C1.70588 4.28141 1.61667 4.11444 1.58051 3.93267C1.54436 3.7509 1.56289 3.56249 1.63377 3.39125Z" fill="white"/>
</g>
<defs>
<clipPath id="clip0_462_1238">
<rect width="15" height="15" fill="white"/>
</clipPath>
</defs>
</svg>
