<svg width="22" height="19" viewBox="0 0 22 19" fill="none" xmlns="http://www.w3.org/2000/svg">
<path d="M11 0C12.4587 0 13.8576 0.500445 14.8891 1.39124C15.9205 2.28204 16.5 3.49022 16.5 4.75C16.5 6.00978 15.9205 7.21796 14.8891 8.10876C13.8576 8.99955 12.4587 9.5 11 9.5C9.54131 9.5 8.14236 8.99955 7.11091 8.10876C6.07946 7.21796 5.5 6.00978 5.5 4.75C5.5 3.49022 6.07946 2.28204 7.11091 1.39124C8.14236 0.500445 9.54131 0 11 0ZM11 11.875C17.0775 11.875 22 14.0006 22 16.625V19H0V16.625C0 14.0006 4.9225 11.875 11 11.875Z" fill="#4DC02A"/>
</svg>
