<?xml version="1.0" encoding="UTF-8"?>
<svg version="1.1" viewBox="0 0 1155 2048" width="158" height="280" xmlns="http://www.w3.org/2000/svg">
<path transform="translate(479,785)" d="m0 0 12 2 20 7 25 9 14 6 39 11 12 5 16 9 14 9 16 8 11 7 13 12 7 8 7 14 5 16 8 41 6 41 4 24v14l-4 11-7 9-6 4-14 5-7 3-3 9-2 13 1 11v17l-4 18-12 43-6 21-5 16 1 4 7 8 13 11 13 10 13 11 12 11 29 29 9 11 12 14 28 38 12 17 13 18 12 16 7 11 5 5 10 6 26 13 23 14 27 18 14 10 13 10 14 12 26 26 7 8 9 10 9 11 12 15 10 13 12 17 17 29 8 10 8 7 20 9 13 7 12 9 10 9 11 9 6 4 8 1 5 4v345h-805l-6-20-7-25-6-23-4-29-4-40-1-31 3-43 1-7v-19l-3-12-7-13-11-14-15-20-9-15-10-16-12-14-6-9-7-14-10-26-14-44-15-53-5-20-2-11v-16l3-7 8-8 1-7-5-16-9-21-16-32-10-25-3-9-1-8 3-14 7-17 13-23 11-16 12-14 23-23 11-9 14-11 13-11 11-10 8-7 14-14 5-9 10-39 3-8v-15l-7-41-10-42-5-31-3-23v-31l3-16 12-37 6-22 7-14 7-9 12-13 14-14 8-7 15-14 11-9 14-10 21-10 33-9z" fill="#952939"/>
<path transform="translate(423,1371)" d="m0 0 4 2 9 10 8 10 10 13 9 15 7 12 6 9 16 14 3 2 6 1 9-4 6-4 6-3v-5l-3-3-1-8 5 1 11 8 13 6 10 3 5 2 12 2h15l2 1 18 1 10 4 4 3v2l-10 5-9 3-9 4h-4l-1 2-10 4-10 3-7 2-9 3-6 4-8 2-11-1-3 4 1 5 9 4 1 3-3 6v10l-3 6 6-1 13-9 15-11 22-12 23-11 20-7 36-11 10-3v-2l10-2 14-5 3-2 9-3 65-24 18-6 27-5 11 7 28 14 23 14 27 18 14 10 13 10 14 12 26 26 7 8 9 10 9 11 12 15 10 13 12 17 17 29 8 10 8 7 20 9 13 7 12 9 10 9 11 9 6 4 8 1 5 4v345h-263l3-30 2-10 2-6-1-6-2-10-4-4-6-4v-2h-10l-11 4-9 8-8 10-9 10-9 11-12 8-7 1-2-9-2-24-2-34-3-10-3-3h-10l-10 2h-34l-13-2-4-8-14-37-3-10-5-12v-5l4 5 6 4 6 6 6 3v2l9 1 3 2 1 7 19 2 18 2 54 3h11l7-9 16-24 10-10 7-8 8-7 8-4 30-8 29-9 28-10 22-10 18-11 14-8 6-1-2 4-2 5-5 2-2 4-12 9 6-2 24-13 5-3h2l2-5 5-1 2-5 7-3 4-8 1-4-6-1-1-2-6-1-1-13-4-2-4-3 2 5 3 3 1 6-2 3-6 2-5 2h-19l-20 3-11 2-30 7-5 2-17 3-19 4-25 6-19 5-42 9-43 6-71 6-40 3-4-8-6-17-8-18-9-16-12-17-9-10-9-11-13-14-7-8-13-16-11-17-9-15-14-25-8-14-7-11-13-20-7-10-12-16-6-7-3-5-2-2-4-14-1-2v-8l1-10-4-9-8-11-9-17-6-15-6-9-5-9-2-5-4-7-4-10-3-4v-2h-2l-7-11-8-10-7-10-7-12z" fill="#242424"/>
<path transform="translate(506,1552)" d="m0 0 4 2 13 14 10 14 7 10 13 20 9 14 18 33 14 23 10 14 8 10 9 10 9 11 13 14 9 11 10 13 9 15 9 19 7 18 4 11 90-7 36-4 33-5 42-9 29-8 15-3 24-5 9-2 15-4 18-4 11-2 20-3h19l7-3 4-1 1-3-2-6-4-5 1-3 8 6 1 2v11h6l1 3 6 1-1 5-4 8-7 2-2 5-5 2-2 4-22 12-13 7-3-1 13-10 5-5h2l1-5 3-4-9 4-11 6-20 12-20 9-34 12-30 9-26 7-9 6-9 9-7 8-6 7-16 24-6 7-33-1-43-3-24-3-2-1-2-7-11-3v-2l-6-2-1-3-5-2-9-9 2 9 5 12 6 17 11 29 1 2 13 2h34l10-2h10l4 4 3 10 3 49 2 18 9-3 11-8 9-11 10-11 8-10 7-6 11-4h8l6 5 6 4 2 4 2 10-1 7-2 6-4 35-1 2h-306l3-10 4-8-3 3-6-1-8-6v-2l-3-1-6-8-10-10-2 1-18-22-11-12-9-11-12-15-14-19-11-16v-3l-3-1-8-14-4-6-10-2-65-4-15-2-3-3-3-14-1-7v-13l4-14 4-4 3-1h15l12 1h17l-1-5-5-9-15-29v-2h-2l-9-14-6-9-2-1v-2l-3-1-4-5-8-7-14-12-11-9-14-12-20-16v-2l-4-2-5-6-2-1v-3l-4-2-4-6 1-6 11-10 11-9 7-7 8-7 13-12 10-8 5-3 1-2 5-3 3-1v-2l20-15 13-10 14-7 5-2 12-3 9-3 24-5 6-1h24l15 3z" fill="#CFB59F"/>
<path transform="translate(479,785)" d="m0 0 12 2 20 7 25 9 14 6 39 11 12 5 16 9 14 9 16 8 11 7 13 12 7 8 7 14 5 16 8 41 6 41 4 24v14l-4 11-7 9-6 4-14 5-7 3-3 9-2 13 1 11v17l-4 18-12 43-6 21-5 16 1 6-4-1-6-4h-11l-8 1-2-2-2-5-4 1-2 4h-2l-1 4-9 8-5 2-10 1-10-4-7-1-19-2-13-3-14-7-11-6-16-9-9-3-18-3-7-3-9-1-9 2-12 6h-12l-2 9-7 6-9 2-3 2 2 6 5 6 32 22 13 8 6 4v5l-9-1-9-4-19-7-6-2-14-5-12-5-15-7-15-6-13-6-19-4-5-1 4-8 10-39 3-8v-15l-7-41-10-42-5-31-3-23v-31l3-16 12-37 6-22 7-14 7-9 12-13 14-14 8-7 15-14 11-9 14-10 21-10 33-9z" fill="#AF8670"/>
<path transform="translate(294,1226)" d="m0 0 10 1 31 7 16 6 31 14v3l-10 2-7 2-11 1-6 4-24 3-12 3-15 8-5 7-2 10 1 15 8 31 7 22 5 17 7 19 13 41 7 20 6 14 7 16 10 18 13 26 4 10 5 15 3 5 2 3 10 4v2l-13 10-17 13-3 1v2l-5 4h-3l-2 4-5 3-13 11-12 11-13 12-11 9-9 8-1 6 5 7 2 1v3l4 2 5 6 2 1v2l4 2 14 12 10 8 14 12 13 11 16 14 3 3v2l3 1 14 21v2h2l16 31 5 9 1 5-1 1h-17l-14-1h-13l-5 2-4 11-1 5v13l3 18 1 5 17 2 65 4 10 2 7 10 6 11 2 1 3 6 12 17 9 12 11 14 8 10 9 10 7 8 9 11 7 8 4 2 12 12 3 5 6 5 7 4 4-1 1-2 2 1-5 10-2 7-1 1h-236l-6-20-7-25-6-23-4-29-4-40-1-31 3-43 1-7v-19l-3-12-7-13-11-14-15-20-9-15-10-16-12-14-6-9-7-14-10-26-14-44-15-53-5-20-2-11v-16l3-7 8-8 1-7-5-16-9-21-16-32-10-25-3-9-1-8 3-14 7-17 13-23 11-16 12-14 23-23 11-9 14-11 13-11 11-10z" fill="#242424"/>
<path transform="translate(479,785)" d="m0 0 12 2 20 7 25 9 14 6 39 11 12 5 16 9 14 9 16 8 11 7 13 12 7 8 7 14 5 16 8 41 6 41 4 24v14l-4 11-7 9-6 4-14 5-7 3-4 12-4-2-8-2-5-2-4-1-7-3-4-14 12-2 9 3 6 3 8 2 2-1 1-11-3-7-10-3-17-2-2-1v-2l10-7 9-2 7 1 7 2v-24l-5-16-7-21-4-15-4-8-6-8-5-6-2-1h-13l-4 1-1 3-5 4-4 4-15 10-9 5-10 4-6 2-12 7-11 6-6 4-6 8 7 2-2 4-6 2-14 2-10 3h-3v2l-13 3-8 2-43 4-19 2-6 1-3 7-5 10-4 7-3 6-2 2-8-1-5-18-6-3-1-3-6-2-4 1-5-3-3-8-2 2-3 7h-2l-2 2v-21l-4 1-2 9-3 7h-4v-2h-2v-8l2-6v-4l-4 3-3 11-3 15v17l3 9 2 9 7 13 2 2-1 7-5 10-2 2-3 12-4 15-1 2h-2l-1 5h-2l-1 4h-2l-5-25-10-42-5-31-3-23v-31l3-16 12-37 6-22 7-14 7-9 12-13 14-14 8-7 15-14 11-9 14-10 21-10 33-9z" fill="#242424"/>
<path transform="translate(1087,1734)" d="m0 0 3 3 2 7-1 3v15l-1 2v21l-3 8-6 7-5 3-8 7-12 7-15 9-23 10-21 8-38 15-21 8-8 6-4 2-6 12-5 8-2 7-1 1-2 10h-2v5l8 3 17 3 72 8 46 4 42 4 58 5 4 1v102h-263l3-30 2-10 2-6-1-6-2-10-4-4-6-4v-2h-10l-11 4-9 8-8 10-9 10-9 11-12 8-7 1-2-9-2-24-2-34-3-10-3-3h-10l-10 2h-34l-13-2-4-8-14-37-3-10-5-12v-5l4 5 6 4 6 6 6 3v2l9 1 3 2 1 7 19 2 18 2 54 3h11l7-9 16-24 10-10 7-8 8-7 8-4 30-8 29-9 28-10 22-10 18-11 14-8 6-1-2 4-2 5-5 2-2 4-12 9 6-2 24-13 5-3h2l2-5 5-1 2-5 7-3 4-8 1-4-6-1v-2l7 1 3-4h2l1-5 1-4-1-19z" fill="#242424"/>
<path transform="translate(374,1592)" d="m0 0 2 1-11 11-1 2 4 1 5 4 4 4 2 1v3h2l9 11 4 8 4 18 4 20 3 11 1 5 6 17 5 10 2 2v3l2 1 6 9 14 18 1 3 3 1 4 5v2h2l5 6 8 6 5 6 5 5 11 12 7 9 13 13 5 7v2h2l7 8 9 6 16 11 7 8 10 11 7 9 22 22 11 9 5 8 6 5 7 8 2 4h2l7 12 4 8 6 7v3h2l5 12 4 13 3 6-3 11h-7v-2l-14-3-5-1-19 10-7 7-4 8h-3l-2 4-6-1-8-6v-2l-3-1-6-8-10-10-2 1-18-22-11-12-9-11-12-15-14-19-11-16v-3l-3-1-8-14-4-6-10-2-65-4-15-2-3-3-3-14-1-7v-13l4-14 4-4 3-1h15l12 1h17l-1-5-5-9-15-29v-2h-2l-9-14-6-9-2-1v-2l-3-1-4-5-8-7-14-12-11-9-14-12-20-16v-2l-4-2-5-6-2-1v-3l-4-2-4-6 1-6 11-10 11-9 7-7 8-7 13-12 10-8 5-3 1-2 5-3 3-1v-2z" fill="#AF8771"/>
<path transform="translate(278,1731)" d="m0 0 6 2 5 2 1-1h8l4 7 9 6 7 7 6 12v2l4 1 5 9 6 7v3h2v2l10-6 6-2h3l5-3 4-1 5-2 6-1 2-13 4 5 2-2 8 10 6 8h2l14 27 5 9 1 5-1 1h-17l-14-1h-13l-5 2-4 11-1 5v13l3 18 1 5 17 2 65 4 10 2 7 10 6 11 2 1 3 6 12 17 9 12 11 14 8 10 9 10 7 8 9 11 7 8 4 2 12 12 3 5 6 5 7 4 4-1 1-2 2 1-5 10-2 7-1 1h-236l-6-20-7-25-6-23-4-29-4-40-1-31 3-43 1-7v-19l-3-12-7-13-11-14-15-20-9-15z" fill="#242424"/>
<path transform="translate(412,1567)" d="m0 0 2 1 17 1 5 3 15 14 4 11 2 20 4 6 7 4 4 4 19 3 10 4 6 4 15 13 5 8 1 4v8l-3 13-1 2-1 24 5 13 10 16 9 14 1 3h2l8 11 6 9 2 4h2v2l4 2 6 7 4 3v2l4 2 15 14 11 7 8 6 11 13 14 22 7 16 10 14 7 10 13 18 6 14 6 17 5 8 3-2-1 6-5 16-1 8v17l-2 3-19 4-7 2h-8l-12-4 4-1 2-11-5-12-5-15-1-4h-2l-3-6-6-7-6-12-2-5h-2l-7-8-6-7-5-5-3-5-11-9-25-25-7-9-10-11v-2l-3-1v-2l-5-2-12-9-10-7-5-5v-2h-2l-8-11-14-14-7-9-10-12-7-6v-2l-4-2-9-8v-2h-2l-5-7-5-5-10-13-9-12-3-6-4-6-7-19-1-7-3-8-4-17-3-17-4-13-8-10-2-4h-2l-2-3-7-6-3-3-3-1 2-4 14-14 16-13z" fill="#BFA088"/>
<path transform="translate(1086,1729)" d="m0 0 4 2 1 3 3 2 2 9 20 1h39v200l-28-2-67-6-41-4-34-3-59-7-17-4-2-4 1-3h2l1-10 2-2 2-8 7-11 4-7 9-7 10-5 19-7 38-15 18-7 23-10 18-11 10-6 7-7 5-3 4-5 2-7v-21l1-6v-11l1-4-3-8-2-1z" fill="#979E96"/>
<path transform="translate(801,1946)" d="m0 0 5 2 1 6 8 4 1 1-1 8-4 11 6 1 1 4 5 1 9 1 8-4 3-1 2-5 7-8 5-5h2l2-5 2-4h2l1-3 4 1 5 5 7 2 2-1-1-7h12l16 4h13l1 5h6l3 2h13l1-3h10l66 8 48 6h12l3-3 16 1 13 2 12 5 6 4 7 8 2 5 1 38v16h-252l3-30 2-10 2-6-1-6-2-10-4-4-6-4v-2h-10l-11 4-9 8-8 10-9 10-9 11-12 8-7 1-2-9-2-24-2-34-3-10-2-4z" fill="#010202"/>
<path transform="translate(1058,1751)" d="m0 0 5 3 5 5v11h6l1 3 6 1-1 5-4 8-7 2-2 5-5 2-2 4-22 12-13 7-3-1 13-10 5-5h2l1-5 3-4-9 4-11 6-20 12-20 9-34 12-30 9-26 7-9 6-9 9-7 8-6 7-16 24-6 7-33-1-43-3-24-3-2-1-2-7-11-3v-2l-6-2-1-3-5-2-4-4-6-5-2-3-7-20-7-25 1-2 90-7 36-4 33-5 42-9 29-8 15-3 24-5 9-2 15-4 18-4 11-2 20-3h19l7-3 4-1 1-3-2-6-4-5z" fill="#7F8882"/>
<path transform="translate(627,921)" d="m0 0h13l7 6 4 6 5 7 5 15 5 17 5 15 3 12v20l-1 2-14-2-9 2-8 6h-2v2l19 2 10 3 3 4 1 5-1 10-4 2-11-4-9-4-11 1-2 1 2 5 1 8 7 2 9 3 8 2 4 3-1 10 1 11v12l-2-1-2-6-7-5h-4l-2 2-8-3-8-4-4-3-3 1v7l-2 1-2-1-3-9-4-4-5-18-8-6v-7l-1-3-9-4-4 1-4 2-2 8-7 3-3 3-7 1-1 1h-8l-6 2h-7l-11-3v-2l-6-2-11-6-9-7-3-4v-2l-4-2-6-4-2-5h-2l-10-10-8-3h-11l-11 2-11 1-10 4h-2l-1 4-4 1-4 10-4 2-3 8-8 7-5-2-3-6-4-11-8-3v-2l-4-1v11l2 5v6l-1 2h-2v2h-5l-3-9h-5l-2-2-6-5-3-1 2 5 1 6-5 1-3-9-1-4 1-8h-3l-2 6h-3l-1-9-2 1v14l6 18-1 4-5-10-2-10-2-6v-17l5-23 3-5 4-3-1 11-1 1-1 8h2l1 2 3-1 5-15 4-1 1 18 3 1 3-9h3l3 8 5 2 4-1 5 3 3 3 5 3 4 15v3h8l3-5 4-8 5-8 3-8 2-3 12-2 46-4 15-2 5-2 11-1v-2l17-5 13-2 4-2 1-2h-6l-3-3 6-5 4-5 11-6 16-9 9-3 11-5 22-14 5-6 5-4z" fill="#8C6D58"/>
<path transform="translate(789,1947)" d="m0 0h10l4 4 3 10 3 49 2 18 9-3 11-8 9-11 10-11 8-10 7-6 11-4h8l6 5 6 4 2 4 2 10-1 7-2 6-4 35-1 2h-306l3-10 10-18 7-7 19-10 10 2 9 3v2l9 2 6 2h8l21-5 5-1 1-2v-17l2-12 6-18 5-5 4-3 6-1h12l5 1h2v-2h43z" fill="#92B0C4"/>
<path transform="translate(357,1605)" d="m0 0h2l-2 4-7 6-7 8h-2l-2 4-12 13-1 1v10l4 4 6 4 7 8 18 18 6 9 8 15 13 26 8 19 9 16 6 18 2 9 5 8 3 5 1 4 4 1v2l4 2 8 7 7 6 7 8 3 3 1 5h2v2l5 2 5 7 3 3 4 5v2h2v2h2l4 7 4 6 13 13 7 9 12 12 3 2v2l4 2 11 9v2l4 2 4 3v2l4 2 11 8v2l4 2 9 8 6 7v2h2l6 7 2 5h2l5 9 10 15v5l-7 7-4 8h-3l-2 4-6-1-8-6v-2l-3-1-6-8-10-10-2 1-18-22-11-12-9-11-12-15-14-19-11-16v-3l-3-1-8-14-4-6-10-2-65-4-15-2-3-3-3-14-1-7v-13l4-14 4-4 3-1h15l12 1h17l-1-5-5-9-15-29v-2h-2l-9-14-6-9-2-1v-2l-3-1-4-5-8-7-14-12-11-9-14-12-20-16v-2l-4-2-5-6-2-1v-3l-4-2-4-6 1-6 11-10 11-9 7-7 8-7 13-12 10-8 5-3z" fill="#765746"/>
<path transform="translate(441,1180)" d="m0 0 12 2 4 2 23 4 19 10 8 5 14 7 8 3 9 2 19 2 8 1 9 4 10-1 8-4 6-6 1-3h2l2-5 4-1 2 2 2 5 8-1h11l1 2h-9l-6 3-10 1-1 3h-2v2h-2l-2 4-9 9-12 7-17 1-9 1-2 1 1 5-3 3-23 3-7 3v2l7 3 8 8v2l3 1 3 5-2 6-5 4-3 1h-13l-12-2-16-4-16-5-10-5-15-6-51-19-13-6-15-6-31-15-12-4-5-1-1 6-5-1v-2l-4-1-4 5h-2l-2 4-5 1-2-2 14-14 3-1 5 2 16 3 13 6 24 10 12 6 20 7 6 2 13 5 14 5 4 2 6 1-2-6-11-6-12-8-10-7-17-12-6-7-1-5 4-3 11-3 4-4 2-9 1-1h12l5-3 10-4z" fill="#996959"/>
<path transform="translate(374,1592)" d="m0 0 2 1-11 11-8 7-9 9 1 5h2l7 8 4 5 8 16 2 5 3 5 3 8 6 13 3 9 4 11 3 8 3 10 2 5h2l5 9 6 9 6 12 7 10 5 9 4 4 9 12v2h2l5 5 10 12 4 6 10 12 7 6v2l4 2 6 5v2l3 1v2l4 2 5 4 5 5 11 10 10 8v2h2l9 9v2l4 2 7 8v2h2l7 8v2h2l6 8 6 9 10 13 6 9 9 10 7 11 8 14 6 9v2l5 2v3l-17 9h-2l-3-7-8-12-4-7v-2h-2l-5-8-3-2v-2h-2l-9-11-10-8v-2l-4-2-8-6-3-2v-2l-4-2-4-3v-2l-4-2-9-8-8-7-13-13-7-9-7-8-4-4-6-8v-3h-2v-2h-2l-5-7v-2l-4-2-3-4v-2l-5-2v-2h-2l-3-6-4-4v-2l-4-2-13-13-6-4v-2l-4-1-4-8-4-5-3-7-4-16-4-9-9-17-9-22-7-12-11-23-6-8-7-8-18-18v-2l-4-2-6-4-1-2v-10l9-9 7-9 7-6 6-7 9-9h2v-2z" fill="#9B7963"/>
<path transform="translate(294,1226)" d="m0 0 10 1 31 7 16 6 31 14v3l-10 2-7 2-11 1-6 4-24 3-12 3-15 8-5 7-2 10 1 15 8 31 4 12v7l-2-1-5-11-2-9-3-5-2-12-3-3-1 5-5 3-2 6-4 2 1-10 3-5-4 2-6 5 1-6 7-9 5-2-2-1 1-5-10 1-1-2h-5l-3 4-11 3-2 2h-3v2h-3l-1 4-4 4-5-2 2-1v-3l-3 3-3 5-2 1 5 3-3 3-8 6-3 4-3 9-5 12-1 4h5l-1-6 1-6 9 2-1 9-4 8-5 6 6-3 9-1v-3l3 1h-2l-1 5h-2l-2 9-4 5-9-1-5 4-6 1-1-1 1 8 1 3h-3l3 9-7-6-2 2-8-12-4-8-3-3 1 5 2 7-1 4v5l-2-2-7-20-1-8 3-14 7-17 13-23 11-16 12-14 23-23 11-9 14-11 13-11 11-10z" fill="#3A3232"/>
<path transform="translate(925,1877)" d="m0 0 1 2 1 8 3 5 21 2 12 2 26 2 23 1 29 3 100 5 14 2v37l-28-2-67-6-41-4-34-3-59-7-17-4-2-4 1-3h2l1-10 2-2 2-8 7-11z" fill="#6D726F"/>
<path transform="translate(477,1908)" d="m0 0h3l3 6 12 17 9 12 11 14 8 10 9 10 7 8 9 11 7 8 4 2 12 12 3 5 6 5 7 4 4-1 1-2 2 1-5 10-2 7-1 1h-92l4-7-2-11-5-8-9-19-5-14-10-27-4-11-1-13 3-9 4-6 6-4h4l-1-7z" fill="#191010"/>
<path transform="translate(357,1605)" d="m0 0h2l-2 4-7 6-7 8h-2l-2 4-12 13-1 1v10l4 4 6 4 7 8 18 18 6 9 8 15 13 26 8 19 9 16 6 18 2 9 5 8 3 5 1 4 4 1v2l4 2 8 7 7 6 7 8 3 3 1 5h2v2l5 2 5 7 3 3 4 5v2h2v2h2l4 7 4 6 13 13 7 9 12 12 3 2v2l4 2 11 9v2l4 2 4 3v2l4 2 11 8v2l4 2 9 8 6 7v2h2l6 7 2 5h2l5 9 10 15v5l-7-4-12-12-9-15-2-4-3-1-6-8-3-3v-2h-2v-2l-4-1-5-5-8-6-11-8-4-2v-2l-5-2-7-5v-2l-5-2v-2l-4-2-10-9-15-15-7-10-6-5-6-7-2-6h-2l-6-10-6-8v-2l-4-2-9-12-5-9-4-4-7-9-8-16-10-19v-2h-2l-9-14-6-9-2-1v-2l-3-1-4-5-8-7-14-12-11-9-14-12-20-16v-2l-4-2-5-6-2-1v-3l-4-2-4-6 1-6 11-10 11-9 7-7 8-7 13-12 10-8 5-3z" fill="#7F614E"/>
<path transform="translate(423,1371)" d="m0 0 4 2 9 10 8 10 10 13 9 15 7 12 6 9 16 14 3 2 6 1 9-4 6-4 6-3v-5l-3-3-1-8 5 1 11 8 13 6 10 3 5 2 12 2h15l2 1 18 1 10 4 4 3v2l-10 5-9 3-9 4h-4l-1 2-10 4-10 3-7 2-9 3-6 4-8 2-11-1-3 4 1 5 9 4 1 3-3 6v10l-3 6 6-1 13-9 5-4 2 1-4 4-21 14-10 9-3 2h-6l-2 4-2-2-4-14-1-2v-8l1-10-4-9-8-11-9-17-6-15-6-9-5-9-2-5-4-7-4-10-3-4v-2h-2l-7-11-8-10-7-10-7-12z" fill="#641721"/>
<path transform="translate(280,1661)" d="m0 0 4 4 7 8 6 6 5 3 5 6 2 1v2l4 2 14 12 10 8 14 12 13 11 16 14 3 3v2l3 1 14 21v2h2l1 6-5-5-3-5-6-7-1-2-3 2-2-3-2 8-1 2-6 2-6 3-5 1-6 3h-4l-9 5-3 1v-2h-2l-4-7-4-5-4-7-3-1-8-15-7-7-9-6-2-6-8 1-2 1-11-6-10-14-9-10-8-13v-4l5-2 10-6 4-3h2l2-4 3-5 2-7z" fill="#271616"/>
<path transform="translate(561,1082)" d="m0 0h5l1 2-2 3-1 6-1 4 3 7 6 3 5-1 6-2h8l10 4 3 2v-3l5-1 6 3 9 5 4-1 3-3 5 7 3 8-1 4-2 5 3 4v3l4-1v2h2l3 4-1 8-2 3h-2l-2 4-1 6-10 1-3-3-13 1-7-1-6-5-18 4-2 1 1 4 14 7 2 3v3l-9 5h-20l-10-5-1-3 4-7h3l-1-5-4-2-3-3-13-5-22-1-2-1v-9l1-2h2l1-6 3-6 7-2h11l3-1 5 1 2 4h7l4 4v2h12l5 2v2l5 2h6l-5-10-12-6 1-7-8-3-7-1-2-2-2-5-2-1h-8l-5 3h-2v10l-6 2v2l-7 1-5-3-2-4-2-1 1-5 2-2 8-2 4-8 9-7 4-2h3l2-4 5-2 1-6z" fill="#9B7360"/>
<path transform="translate(622,1209)" d="m0 0h7l7 3 6 3 8 8 28 22 10 9 8 7 2 4-3 1-7-4v-2l-7-1 6 7 3 3v2l4 2 2 4 3 1 9 13 13 19 6 9 2 6 3 4 4 10 6 9 5 7v3l-6-2-5-4 3 5 5 6 3 7-1 3-3-1-6-8-5-6-2-1-2-4v-5-4l-6-8-7-9-4-7-1-4-3-1-5-8-7-10-8-11-5-6-5-5-4-5-7-6-10-10-3-1-1-3-4-4v-2l-7-2h-2v-2h-2l-1-5-2-3-1-10-8-3-5 2h6l1 4-1 9-2 2-5 1-3 5-4 1-5 3-2 11-10 4-1 3 4 4 4 5 7 4v2l9 3 1 3h2l5 6 4 2 3 3v2l5 2v2l3 1 1 4-2 1-8-4-3-3-4-2v-2l-10-2-4-3v-2l-9-3v-2h-2l-1-2-9-3-4-5-4-2v-2l-5-2-4-1-3 2h-3l-1 6-6-2-2-1v-2l-9-3h-8l-4 2-5-1-8-8-7-3 2-4 12-3 19-2-1-7 6-3h13l10-1 13-8 9-9 1-2h2v-2h2l1-4 13-2z" fill="#651722"/>
<path transform="translate(627,921)" d="m0 0h13l7 6 4 6 5 7 5 15 5 17 5 15 3 12v20l-1 2-14-2-9 2-8 6h-2v2l19 2 10 3 3 4 1 5-1 10-4 2-11-4-9-4-11 1-2 1 2 5 1 8 7 2 9 3 8 2 4 3-2 11-3-3v-2h-7l-2-3v-4h-6l-3-1-4-1-3-4-1-12h-2v-2l-5 1-1 8h2l1 5h2l1 4 5 2 5 5 3 4v2l5 1 1 4-4 3-6-1-5-5v-2l-4-2-5-5-3-8-4-4-2-6-6-8 1-14 2-2 7-1 11-9 16-8 11-2 5-3 1-5-10-28-7-11-8-10-5-7-10-5-3-1h-7l-16 8-14 5-15 7-11 7-4 4h-2v2l-5 5 9 1v2l9 1 11 3 7 4 11 7 5 6 3 7h-2v3l-5 1-4-1-5 1 2 5-1 5-5 1-1 4h-2l-2 5h-2v2l-4 1-1 2-8 3-3-1-2-9-5-1-6 1-5-1-2-4v-8-4l-1-3h2v-2l5-1 3 1 2 2 4 1v-2l6-4h8l-3-3-5-4v-5h-2l-2-3-7-2 1-4h-8l-5-1 5-5h-6l-3-3 6-5 4-5 11-6 16-9 9-3 11-5 22-14 5-6 5-4z" fill="#52473E"/>
<path transform="translate(568,985)" d="m0 0 11 1 4 2v2l5 1 10 6 3 5 4 4 3 5-1 7-5 5 1 7-4 1h-6l-7 4v4l-9 6-1 3-5 4-10 3-12 2-5-2v-2l-5-1-4-2-5-1-5-5-6-5-5-3v-2h-2l-3-3-3-5-1-3h-2l-2-6 5-5 19-3 8-3-2-4-9-2-13 2-8 2-26 1-13 1-16 3-7 1-12 4-6 8h-2l-1 4-3 6-3 3-2 5h-2l-2 4-4 5-4-2-4-3-4-11-8-3v-2l-4-1v11l2 5v6l-1 2h-2v2h-5l-3-9h-5l-2-2-6-5-3-1 2 5 1 6-5 1-3-9-1-4 1-8h-3l-2 6h-3l-1-9-2 1v14l6 18-1 4-5-10-2-10-2-6v-17l5-23 3-5 4-3-1 11-1 1-1 8h2l1 2 3-1 5-15 4-1 1 18 3 1 3-9h3l3 8 5 2 4-1 5 3 3 3 5 3 4 15v3h8l3-5 4-8 5-8 3-8 2-3 12-2 46-4 15-2 5-2 11-1v-2l17-5 18-1 8 1v4l7 2 1 3h2l2 6 7 5-2 2h-7l-4 3h-2v2h-5l-4-3h-5v2h-2l3 4-1 9 1 6 15-1 2 2 2 9 10-2 2-4 3 1v-2l3-3 1-2h2l1-4 5-2-1-6v-4l6-1 8 1 1-4-5-8-2-4-5-2-6-4-7-4-11-3z" fill="#8D6D58"/>
<path transform="translate(789,1947)" d="m0 0h10l4 4 2 6v27l-2-1-1-7-2-9-5-7v-2l-13 3-5 5h-7l-4 4 2 7 3 9v13l-1 21 8 1 3 3 25 3 2-2 4 5 1 4-1 2h-3v-3l-4 2-1-4-13 4-3 2-6-1-6-3-1-2-5-3-1-8-5-2-1-3-6-2-2-5-11-4-11-3h-11l-2 2-4-1-15-9-4 2v15l3 2v6l-6 8-6 5-10 1-10-2-7-4v-2l-3-1-12-1-7-6-3-4 3-3-7-1-5-1-3 1h-5v-2l6-3 10 2 9 3v2l9 2 6 2h8l21-5 5-1 1-2v-17l2-12 6-18 5-5 4-3 6-1h12l5 1h2v-2h43z" fill="#AABBC5"/>
<path transform="translate(209,1501)" d="m0 0 2 3 4 13 12 25 10 21 11 20 11 23 6 14 6 16 7 20v9l-3 7-4 6-12 8-5 3h-4l-1 2-10-25-12-36-9-30-14-50-4-20v-16l3-7z" fill="#472528"/>
<path transform="translate(1094,1769)" d="m0 0h26l35 1v85l-13-1h-15l-19-2h-10l-10-3-3-3-3-7-2-1v-5l4-5 9-27 2-9 2-2h3v-4l-4-2-2-7z" fill="#AAA597"/>
<path transform="translate(1058,1751)" d="m0 0 5 3 5 5v11h6l1 3 6 1-1 5-4 8-7 2-2 5-5 2-2 4-22 12-13 7-3-1 13-10 5-5h2l1-5 3-4-9 4-11 6-20 12-20 9-11 4-3-1 19-8 17-8 15-10 10-7 1-2h-2v-7l-13-2-5 2-13 1v3l-14 2-9 2-15 5-13 4-8 4-13 7-5 5-26 10-10 4-16 8-9 5-5 5-7 5-12-1-7-1v-4l10-6 19-4 1-4-1-4 5-4h2l2-5 6-7v-3l-3-1h-11l-23 5-15 3-30 3-50 4-32 2-2 1 6 3 7 6-1 4-27 1-3-7-2-9 66-5 46-4 43-6 47-10 29-8 15-3 24-5 9-2 15-4 18-4 11-2 20-3h19l7-3 4-1 1-3-2-6-4-5z" fill="#6B7979"/>
<path transform="translate(558,1086)" d="m0 0 2 1-2 3-6 3-1 2-10 5-6 5-4 8-9 3-2 5 3 1 3 5 8 1h2v-2l5-2 1-10 7-4h8l4 3 2 5 7 1 9 4-2 7 5 1 9 6 3 9-6 1-5-3v-2l-5-1h-10l-6-6-7-1-4-4h-5l-1 1h-13l-5 1-4 12h-2l-1 11 24 1 15 6 1 3 5 2 1 3-1 2-3 1-3 6 1 3 9 4h20l7-4h2l-2-5-10-5-6-4 1-4 4-2 10-2 6-1 6 5 9 1 11-1 4 3h9l-5 5v8l6 1 3-1 2 1-1 8-6 19 1 6-4-1-6-4h-11l-8 1-2-2-2-5-4 1-2 4h-2l-1 4-9 8-5 2-10 1-10-4-7-1-19-2-13-3-14-7-11-6-16-9-9-3-18-3-7-3-9-1-9 2-12 6h-12l-2 9-7 6-9 2-3 2 2 7-4-2-6-7-4-6 1-3 6-1 4 1 9-2 4-10 6-4 18-2 15-4 14 1 21 6 9 4 9 5 7 3 11 7 4 2v2l4 1 13 5 12 2 17 1h13l2 1h9l8-3 5-6 1-6-3-7-10-1-13-2-16-7-1-7 5-7-2-4-5-3-12-3h-19l-6-1 1-7 4-13-1-4-1-2-9-4-1-7 3-7 10-4 7-3 9-8 11-6 3-3 7-2z" fill="#9C7A64"/>
<path transform="translate(294,1226)" d="m0 0 10 1 31 7 16 6 31 14v3l-10 2-7 2-11 1-6 4-24 3-12 3-15 8-5 7-1-3-1-4-7-3-13 1-19 4-8 4-3 3h-2v2l-7 2h-2l-2 3-2-2-6 1-8 8v-3l26-26 11-9 14-11 13-11 11-10z" fill="#453936"/>
<path transform="translate(334,1632)" d="m0 0 1 2v8l7 7 6 4 7 9 10 15 6 11 8 15 5 13 7 14 11 23 5 11 8 19 5 10 9 11 5 5 8 9 6 5 5 6v2h2v2h2l5 7 10 10 1 3h2l5 6v2h2l1 4 3 1 7 8 4 4v2h2l7 9 5 4v2l4 2 11 9 3 2v2l4 2v2h2v2l4 2 9 10 7 8 10 10v2h2l5 6 9 7 11 12 9 11 6 10 5 8 3 4v3l-7 4h-2l-3-7-8-12-4-7v-2h-2l-5-8-3-2v-2h-2l-9-11-10-8v-2l-4-2-8-6-3-2v-2l-4-2-4-3v-2l-4-2-9-8-8-7-13-13-7-9-7-8-4-4-6-8v-3h-2v-2h-2l-5-7v-2l-4-2-3-4v-2l-5-2v-2h-2l-3-6-4-4v-2l-4-2-13-13-6-4v-2l-4-1-4-8-4-5-3-7-4-16-4-9-9-17-9-22-7-12-11-23-6-8-7-8-18-18v-2l-4-2-6-4-1-2v-10z" fill="#8D6E59"/>
<path transform="translate(620,1209)" d="m0 0 2 1-6 3-10 1-1 3h-2v2h-2l-2 4-9 9-12 7-17 1-9 1-2 1 1 5-3 3-23 3-7 3v2l7 3 8 8v2l3 1 3 5-2 6-5 4-3 1h-13v-1l9-2 1-3-4-1-7-3-1-5h-11l-9-1-3-2v-2l-17-3-13-5-12-7-12-6-9-6 4-1 10 2h13l3-1-2-5 1-4 17-2 19 4 9 1h8v-9l2-1h8l7 2h38l18-2 8-3 7-5 5-5 7-1z" fill="#724F40"/>
<path transform="translate(378,1825)" d="m0 0h13l28 3 8 1 4 5 12 22 11 16 8 11v2l-21-1-51-3-15-2-3-3-3-14-1-7v-13l4-14z" fill="#6E726F"/>
<path transform="translate(924,1881)" d="m0 0 2 3 4 8 21 2 12 2 26 2 23 1 29 3 100 5 14 2v16l-9-1-9-2h-33l-22-1-15-1h-22l-7-1-10-1-17-2-31-1-2 2-2 1 1 5-2 1h-6l-1-2-7-2-1 5h-8l-15-4-2-2v-3l-2-1v-2l12 1v-5l-5-1-12-6-4-13z" fill="#6B7878"/>
<path transform="translate(1086,1729)" d="m0 0 4 2 1 3 3 2 2 9 20 1v1l-24 1v42l-3 7-9 10-6 7-13 8-11 6-5 3-1 5 8 6 7 4 8 7v2l4 2v4l-10 5-10 4-11 2-8 1-14-2-7 1h-33l-10-2-4-6-4-2-6-1 3-2 25-10 28-11 12-5 21-9 18-11 10-6 7-7 5-3 4-5 2-7v-21l1-6v-11l1-4-3-8-2-1z" fill="#7E8781"/>
<path transform="translate(311,1210)" d="m0 0 6 2 16 3 13 6 24 10 12 6 20 7 6 2 13 5 14 5 4 2 6 1-2-6-11-6-12-8-8-6-5-5v-2l12 2 17-2 1-9 2-1h11l15 3 18 1 5-5 4-1h11l28 8 5 1 34 2 1 2-7 1h-38l-6-2h-10v9l-9 1-14-2-15-3-15 2 1 8-3 2h-13l-13-2 15 9 26 13 19 4 5 4 20 2 4 6 9 2 1 3-6 3h-12l-22-5-16-5-10-5-15-6-51-19-13-6-15-6-31-15-12-4-5-1-1 6-5-1v-2l-4-1-4 5h-2l-2 4-5 1-2-2 14-14z" fill="#8A6252"/>
<path transform="translate(700,1859)" d="m0 0 8 3 20 6 9 5 9 7 3 3 20 3h17l3 3-5 2 3 5 10 4 6-1 3-2 2-7h13l3-2 19 1 8 2 3 3 1 4-7 10-5 6-33-1-43-3-24-3-2-1-2-7-11-3v-2l-6-2-1-3-5-2-4-4-6-5-2-3-4-12z" fill="#737C78"/>
<path transform="translate(634,908)" d="m0 0 6 1 7 6 5 5 5 6 5 8 3 12 2 16 8 24 3 21-1 13-2 5-6 1-6-3-1-1-10 1 1 3 9 3 8 2 4 3 2 6v6l-2 4v8l-4 2-4 12-4-2-8-2-5-2-4-1-7-3-4-14 12-2 9 3 6 3 8 2 2-1 1-11-3-7-10-3-17-2-2-1v-2l10-7 9-2 7 1 7 2v-24l-5-16-7-21-4-15-4-8-6-8-5-6-2-1h-13l-4 1-1 3-5 4-4 4-15 10-9 5-10 4-6 2-12 7-11 6-6 4-6 8 7 2-2 4-6 2-14 2-6 2-4-1 6-2-1-6 8-3 6-1 1-2h-8l-8 3-15 4-27 5-12-1v-3l15-5 22-5 17-5 9-4 11 1 13-7 7-4h3v-2l13-8 13-6 6-5h2v-2l13-4 9-9 7-5 3-1 4-4z" fill="#3A3232"/>
<path transform="translate(711,1844)" d="m0 0 42 4 23 3 44 4 36 3 23 1h6l-2 4-15 16-12-1-9-2h-38l-15-1-22-2-22-3-15-6-12-5-6-3-3-3-8-4-3-4z" fill="#969D96"/>
<path transform="translate(1085,1677)" d="m0 0 9 3 3 3 10 4 3 2v2l10 5 9 5 10 7 12 9 4-1v30l-5 1h-34l-20-1-2-3-1-7-3-2v-3h-2l-2-4-4-4-2 2-9 3-4 16-3 5-9-2v-3l9-18 4-7 3-7h4l2 5 7 1h7l11 3-6-4v-2l-4-1-5-2-7-1-2-2-1-10-1-3 8 1 25 11 16 8v3l20 4 3 1-2-4-24-12v-2l-5-1-9-9-10-5-12-8-2-5z" fill="#1A1010"/>
<path transform="translate(522,999)" d="m0 0 9 2 3 3-1 3-8 3-19 3-4 4 1 6h2l4 5v3l3 1v2h2v2l5 2 7 6 4 4 8 2 6 3 1 2 5 1 16-3 10-5 1-4 9-6 1-2 6 1 8 1h5l1 1v6l-1 5 8 15 4 13v2l4-4 4 1 5 5 6 4 9 3 4-1 1-4-5-2-4-6-4-3v-2l-5-2-1-4h-2l-1-5h-2v-9h6v2h2l2 12 3 4h5l7 2 2 6 7 1 3 4h1l1 11v12l-2-1-2-6-7-5h-4l-2 2-8-3-8-4-4-3-3 1v7l-2 1-2-1-3-9-4-4-5-18-8-6v-7l-1-3-9-4-4 1-4 2-2 8-7 3-3 3-7 1-1 1h-8l-6 2h-7l-11-3v-2l-6-2-11-6-9-7-3-4v-2l-4-2-6-4-2-5h-2l-10-10-8-3h-11l-11 2-11 1-10 4h-2l-1 4-4 1-4 10-4 2-3 8-8 7-5-2-2-3 1-3 4 4h2l6-8h2l1-5 4-4 4-9 10-10 12-4 8-1 13-2 32-2h7l9-2z" fill="#9B7360"/>
<path transform="translate(628,927)" d="m0 0 12 3 7 10 4 9 8 16 5 14 2 2 4 13 1 1 1 8v14l-3 1-3-1-14 1-8 4-5 4-4 2 1 3 10 2 5-1 14 3 5 5 1 4-2 3-5 1-4 2-14-5h-8l-1 1-7-1-3-1 2 3 5 3v2h2l2 10 7 2 9 3 8 2 4 3-2 11-3-3v-2h-7l-2-3v-4h-6l-3-1-4-1-3-4-1-12h-2v-2l-5 1-1 8h2l1 5h2l1 4 5 2 5 5 3 4v2l5 1 1 4-4 3-6-1-5-5v-2l-4-2-5-5-3-8-4-4-2-6-6-8 1-14 2-2 7-1 11-9 16-8 11-2 5-3 1-5-10-28-7-11-8-10-5-7-10-5-3-1h-7l-16 8-14 5-15 7-11 7-4 4h-2v2l-5 5 9 1v2l9 1 11 3 7 4 11 7-1 2-17-10-14-4-9-1-2-2-11-3-1-2 6-4 10-9 22-11 11-5 12-6 10-7 7-4 5-4z" fill="#775847"/>
<path transform="translate(932,1870)" d="m0 0v3l-5 6 7-1 16 2 26 2 19 3 31 2 19 3 19 2 40 4 28 3 12-2 1-1-7-3v-2l6-1 11 2v17l-114-6-32-3-34-2-19-2-16-2-10-1-4-6-1-8 1-4z" fill="#7F8882"/>
<path transform="translate(634,1214)" d="m0 0h7l9 9 28 22 10 9 8 7 2 4-3 1-7-4v-2l-7-1 6 7 3 3v2l4 2 2 4 3 1 9 13 13 19 6 9 2 6 3 4 4 10 6 9 5 7v3l-6-2-5-4 3 5 5 6 3 7-1 3-3-1-6-8-5-6-2-1-2-4v-5-4l-6-8-7-9-4-7-1-4-3-1-5-8-7-10-8-11-5-6-5-5-4-5-7-6-10-10-3-1-1-3-4-4v-2l-7-2h-2v-2h-2l-1-5-2-3-1-10-7-2v-2h5v-3z" fill="#651822"/>
<path transform="translate(598,963)" d="m0 0h9l6 3v2h2v2l5 2 6 5 5 3v2h2v2l6 2 5 5v2h2v2l4 2 5 6v3h-2l-2 4-10 3-8 3-8 2-6-3-7-2-5-5-5-6-4-2-1-3-10-6-4-1v-2l-22-6 1-5 7-4 9-3 8-4z" fill="#9B7963"/>
<path transform="translate(201,1513)" d="m0 0h2l5 13 2 6v4h2l3 8h-2l1 4 5 5-2 5 3 4 2 7 2 2v4l3 1 3 6 4 6 1 4 3 1v9h4l1 5-3 1 1 3-1 6 4 6 1 8 2 2 2 10 2 8 3 1v8l-1 2 3 3-1 6 3 3 3 2 1 4 1 2h-2v3l-6 3-5 1-1 2-10-25-12-36-9-30-14-50-4-20v-16z" fill="#491217"/>
<path transform="translate(1060,1643)" d="m0 0 7 6 12 6 21 10 14 10 11 10 11 9 6 4 8 1 5 4v13h-3l-1 2-16-12-6-4-9-5-10-6v-2l-15-6-1-3-4-1-5-1 1 5 4 2 13 8 8 4 4 4v2l7 3v2l6 2 10 5 9 5 1 4-11-2-10-2-2-1v-3l-4-1-25-12-15-6-7-3-3-3 1-5-4-2-1-4 1-5-2-10-1-12-4-5z" fill="#651722"/>
<path transform="translate(1058,1751)" d="m0 0 5 3 5 5v11h6l1 3 6 1-1 5-4 8-7 2-2 5-5 2-2 4-22 12-13 7-3-1 13-10 5-5h2l1-5 3-4-9 4-11 6-20 12-20 9-11 4-3-1 19-8 17-8 15-10 7-5 7-3 11-6 4-1v-3l-10-1-2-1h-29l-16 4-7 3-11 3-11 2-14 4-16 5-22 4-9-1-2-1h-10l-10 2h-5l4-2 21-5 18-5 15-3 24-5 9-2 15-4 18-4 11-2 20-3h19l7-3 4-1 1-3-2-6-4-5z" fill="#6E726F"/>
<path transform="translate(789,1958)" d="m0 0h6l7 11 1 12 2 3v-23h1l3 49 2 19 2 1-3 1-2-4-3 1-24-3-1-3-10-2v-34l-3-9-2-7 5-5h7l5-5z" fill="#91AFC3"/>
<path transform="translate(1150,1746)" d="m0 0h5v2h-56l2 6 5 2 7 3v3l-8 4-11 1v23l-4 14h-2v2l-3 3h-2v2l-4 1-1 3-4 1v2l-7 6-1 3 2 10 6 6 1 5h2v2l6 2 3 5 4 3v4l-10 2-10 6-7 8h-20l-26-3-17-3-25-1-17-3-9-2-11-1 3-2 10-4h9l6 4 2 4 10 2h36l7-1 12 2 9-1 12-3 12-5 5-3-2-4-2-1v-2l-4-2-8-7-8-4-4-5 2-5 9-5 14-8 8-6 7-8 6-7 2-6v-35l1-7 3-1z" fill="#88908A"/>
<path transform="translate(1019,1783)" d="m0 0 13 2 1 4-1 4h2l-2 4-6 4-10 6v-3l-7 1-2 2-8 3-11 7-18 6-9 1h-8v-5l6-4 6-3v-3h-6l-14 7-21 6-35 12-2-1 6-3 16-6 15-6h2l2-4 6-4 18-9 20-6 9-3 10-2h10v-3l7-1 10-2z" fill="#7F8882"/>
<path transform="translate(420,1814)" d="m0 0 2 1v2l4 1 6 7 8 7 2 4h2l7 8 1 3 4 2 8 10 9 12 8 11 7 7v2l4 2 9 11 7 8 10 9 7 6 14 10 5 5 7 4 9 6v2l4 2 9 8 6 7v2h2l6 7 2 5h2l5 9 10 15v5l-7-4-12-12-9-15-2-4-3-1-6-8-3-3v-2h-2v-2l-4-1-5-5-8-6-11-8-4-2v-2l-5-2-7-5v-2l-5-2v-2l-4-2-10-9-15-15-7-10-6-5-6-7-2-6h-2l-6-10-6-8v-2l-4-2-9-12-5-9-4-4-7-9z" fill="#7F614F"/>
<path transform="translate(441,1180)" d="m0 0 12 2 4 2 23 4 19 10 8 5 14 7 8 3 9 2 19 2 8 1 7 3v1l-26-1-18-4-20-7-6-4-18-7-4-1h-8l-5-1h-11l-1 6-5 2-9-1-12-3h-8l-1 1-1 9-10 4-7 2-5 2-1 2-4-2-5-6-1-5 4-3 11-3 4-4 2-9 1-1h12l5-3 10-4z" fill="#9B7360"/>
<path transform="translate(357,1605)" d="m0 0h2l-2 4-7 6-7 8-6 4-13 12-7 8-6 9-2 5 2 12 3 5 3 3 4 6 5 4v2l4 2 15 9 8 6 10 9 5 5 6 7v2h2l6 9 3 3 10 16 7 14 2 5 2 1 2 10-3-4-3-6v-2h-2l-9-14-6-9-2-1v-2l-3-1-4-5-8-7-14-12-11-9-14-12-20-16v-2l-4-2-5-6-2-1v-3l-4-2-4-6 1-6 11-10 11-9 7-7 8-7 13-12 10-8 5-3z" fill="#6E4D3F"/>
<path transform="translate(583,1104)" d="m0 0h8l1 3 6 2 5 4h3v-5h5l5 4 11 6 6 1v6l-4 4h-2l2 5v4l-3 1-5-6-4 1-7 3 1 7 5 4 7 5h1l-1-7-1-3 2-3 4 4 6 11 5 4-1 6-8-1-4-2-5 1-8 1-6-2-4-5v-8l-6-9-9-8-5-5-2-5-1-1-7-1-3-3-5-2 1-3 10-2 5-5z" fill="#976858"/>
<path transform="translate(344,987)" d="m0 0h1l-1 11-1 1-1 8h2l1 2 3-1 5-15 4-1 1 18 3 1 3-9h3l3 8 5 2 4-1 5 3 3 3 5 3 3 16v8l-6-12-7-2v-2l-4-1v11l2 5v6l-1 2h-2v2h-5l-3-9h-5l-2-2-6-5-3-1 2 5 1 6-5 1-3-9-1-4 1-8h-3l-2 6h-3l-1-9-2 1v14l6 18-1 4-5-10-2-10-2-6v-17l5-23 3-5z" fill="#9D7A64"/>
<path transform="translate(535,1135)" d="m0 0h15l3 6 9 3 20 4 8 5 1 1v6h-6v3l-4 2 1 4 14 7 2 3v3l-9 5h-20l-10-5-1-3 4-7h3l-1-5-4-2-3-3-13-5-22-1-2-1v-9l1-2h2l1-4 2 1 3-3h4v-2z" fill="#9B7360"/>
<path transform="translate(1011,1803)" d="m0 0 5 1v4l-16 9-20 9-8 2v2l-36 12-18 5h-6v-3l1-4-1-1h-8l-12 4-4 2-8-1-5-1 2-4 8-5 36-12 19-6 9-3 10-5h6l1 4-4 3-8 4-1 5 8-1 9-1 18-6 11-7 9-4z" fill="#878F89"/>
<path transform="translate(924,1881)" d="m0 0 2 3 4 8 21 2 12 2 26 2 23 1 29 3 100 5 14 2v4h-30l-22 1h-16l-17-1-30-1-14-1-18-2-35-2-23-4-16-2-6-3-3-4-1-5z" fill="#737C79"/>
<path transform="translate(480,1908)" d="m0 0 5 4 12 17 2 1v2l3 1v2h2l7 8 3 3v2h3v2l4 2 8 6v2l5 2 7 5v2l4 2 6 6v2l4 2 14 15 8 11 6 7 8 4 8 1-2 6-2 4h-3l-2 4-6-1-8-6v-2l-3-1-6-8-10-10-2 1-18-22-11-12-9-11-12-15-14-19-11-16z" fill="#52473E"/>
<path transform="translate(311,1210)" d="m0 0 6 2 16 3 13 6 24 10 12 6 20 7 6 2 13 5 14 5 4 2 6 1-2-6-2-2 8 1 16 9 13 4 13 3 3 3 20 2 4 6 9 2 1 3-6 3h-12l-22-5-16-5-10-5-15-6-51-19-13-6-15-6-31-15-12-4-5-1-1 6-5-1v-2l-4-1-4 5h-2l-2 4-5 1-2-2 14-14z" fill="#976858"/>
<path transform="translate(368,984)" d="m0 0 5 2 2 5v3l5 2 6 7 9 2 10 5h5l4-6 6-2 32-2 41-4 16-4 4 1h-3v2l-13 3-8 2-43 4-19 2-6 1-3 7-5 10-4 7-3 6-2 2-8-1-5-18-6-3-1-3-6-2-4 1-5-3-3-8-2 2-3 7h-2l-2 2v-21l-3 1 2-4 2-3h2v2z" fill="#3B3232"/>
<path transform="translate(622,1209)" d="m0 0h7l7 3 2 3-4-1-1 2-2-1v3l-10 2-6-1v2l-6 2-6 5h-2l-1 5-4 1-1 5-11 7-8 6 1 3 5 4v4l-6-1-6-2-22 2-12 3h-8l-6-5-5-2 2-4 12-3 19-2-1-7 6-3h13l10-1 13-8 9-9 1-2h2v-2h2l1-4 13-2z" fill="#462629"/>
<path transform="translate(537,987)" d="m0 0 16 1v4l7 2 1 3h2l2 6 7 5-2 2h-7l-4 3h-2v2h-5l-4-3h-5v2h-2l3 4-1 9 1 6 12-1-1 4-9-1-5-3-2-10-1-6-2-1-1 5-5 3-1 1h-7l-10-4v-3l11-4h3v-2l12-5h2v-4l-4-1-6-3-15 1-10 2-11 1-25 1-32 3-8 2h-6l-1 6-12 18-3 7-5 5-4-1v-5h6l3-5 4-8 5-8 3-8 2-3 12-2 46-4 15-2 5-2 11-1v-2l17-5z" fill="#7F614E"/>
<path transform="translate(617,942)" d="m0 0h7l11 5 5 5 10 13 6 9 4 9 5 15 3 7-1 5-6 4-11 2-12 6-9 6-6 5-7 1-1 5-1 10 3 3 5 9 1 4 3 2 3 8 5 5 7 6-4 1-6-6v-2l-4-1-5-7-6-3-4-10-2-3-1-3-1-17 3-2-1-9 3-2 5 1 3 2 5-1 5-3 14-6 14-5 2-4-1-7-3-6v-3h-2l-4-10-5-7-5-5-2-5-4-2-10-7-9-2h-7l-20 7-9 3-9 6-9 5-6 7 1 2-7-1 2-4 3-1v-2l13-10 15-7 18-7z" fill="#7F624F"/>
<path transform="translate(461,1885)" d="m0 0h5l5 4 5 7 4 4v2l3 1v2h2v2l3 1 3 4v2h2l6 8 4 4v2l4 2 9 8 5 4 7 4 8 5 4 2v2l6 3v2l4 2 8 7 2 1v2l4 2 7 10 9 13 4 7 2 1v2l4 2 9 6h4l-2 4-2 1-11-2-8-6-4-5-10-13-13-14-5-5-7-6v-2l-5-2-7-5-5-5-7-5v-2h-3l-7-8-3-3v-2h-2l-3-3v-2l-4-2-12-17-6-4-8-14-4-6z" fill="#714F40"/>
<path transform="translate(561,996)" d="m0 0 5 1 1 3 7 1 3 2 5 1v-2l6 2 7 6 3 1-1-4 1-3-3-1 1-3 6 5 3 7h-2v3l-5 1-4-1-5 1 2 5-1 5-5 1-1 4h-2l-2 5h-2v2l-4 1-1 2-8 3-3-1-2-9-5-1-6 1-5-1-2-4v-8-4l-1-3h2v-2l5-1 3 1 2 2 4 1v-2l6-4h8l-3-3-5-4v-5z" fill="#724F40"/>
<path transform="translate(699,1856)" d="m0 0 9 2 12 3 15 6 13 6 35 5 27 3 8 1h36l3 3 1 4h2l-2 5-4 2-1-4-13-2-16-1-3 2h-13l-2 7-6 3-5-1-9-4-2-2v-3l4-3-6-1h-13l-20-3-8-7-9-6-16-6-14-4-3-1z" fill="#7E8781"/>
<path transform="translate(1087,1734)" d="m0 0 3 3 2 7-1 3v15l-1 2v21l-3 8-6 7-5 3-8 7-12 7-15 9-14 6-3-1 2-5-12-2 2-4 11-10 6-3 1-3 5-2-4-1-13 7-2-1 9-6 11-6 6-1-2 4-2 5-5 2-2 4-12 9 6-2 24-13 5-3h2l2-5 5-1 2-5 7-3 4-8 1-4-6-1v-2l7 1 3-4h2l1-5 1-4-1-19z" fill="#50453D"/>
<path transform="translate(1086,1729)" d="m0 0 4 2 1 3 3 2 2 9 20 1v1l-24 1v42l-3 7-9 10-9 7-18 10-20 8-14 5-6 3 13 3 4 3v3l-10 3-1 3 9 5-4 3h-11l-16-4-23-1v-3h-5l3-2 30-12 18-7 23-10 18-11 10-6 7-7 5-3 4-5 2-7v-21l1-6v-11l1-4-3-8-2-1z" fill="#737C78"/>
<path transform="translate(339,2006)" d="m0 0 11 2 15 5 29 14 16 9v2l-8-1h-20l-24 6-7 2-1 3-6-20-5-19z" fill="#969D96"/>
<path transform="translate(701,1863)" d="m0 0 8 4 18 5 18 12 11 7 5 2 11 2 4 2-1 5h-10l-7-2v4l2 2 27 3 19 1 16 1 22 1-1 2-33-1-43-3-24-3-2-1-2-7-11-3v-2l-6-2-1-3-5-2-4-4-6-5-2-3-3-9z" fill="#6E726F"/>
<path transform="translate(319,1314)" d="m0 0 9 3 12 8v2l6 1 9 6 5 6 11 9 11 7 10 9 5 5v2l3 1v2l5 2 5 5 6 7 2 5 4 5 10 7 12 14 10 14 3 3v3l-5-2-13-12-8-7-6-5-7-8-6-5-5-6-5-4-1-4h3v-3h-2v-2h-2v-2l-6-1-5-5-6-8-9-7-2-1v-2l-12-6v-2l-5-2v-2h-3l-6-7v-2l-10-5-4-4-12-7-2-4z" fill="#651722"/>
<path transform="translate(296,1226)" d="m0 0 12 2 27 6 16 6 31 14v3l-10 2-7 2-11 1-6 4h-7l-2-2v-5l-4-2-4-3v-6l-2-1-1 1-2 3-2-1 2-7h-2l-3-3-10-3-14-2 2-2-1-3-4-2z" fill="#492528"/>
<path transform="translate(886,1978)" d="m0 0 10 6 2 4 2 10-1 7-2 6-4 35-1 2h-51v-2l16-9 10-7 6-4 9-10 8-4h2l1-5 1-2h2v-11l-3 1-2-8-5-5z" fill="#7E8882"/>
<path transform="translate(278,1731)" d="m0 0 6 2 5 2 1-1h8l4 7 9 6 7 7 6 12v2l2 1h-3l-4-4 4 8 4 5 3 10-4 9h-2l-1 2-7-13-11-14-15-20-9-15z" fill="#47272A"/>
<path transform="translate(932,1870)" d="m0 0v3l-5 6 7-1 16 2 26 2 19 3 31 2 19 3 19 2 40 4 28 3 12-2 1-1-7-3v-2l6-1 11 2v12h-17l-67-6-27-2-26-3-14-2-28-3-16-2-22-4h-12v-7z" fill="#88908A"/>
<path transform="translate(319,1644)" d="m0 0v3l-4 7 1 8 5 7 3 6 10 9 9 4 11 8v2h2l4 5 2 1v2h2l9 16 3 3v3h2l6 12 6 9 13 24 2 5-1 3-12-24-8-12v-2l-4-2-4-6v-2h-2l-6-8-5-4-13-13-7-4-14-9-3-2v-2l-4-2-5-6-1-4-3-1-4-8-1-9 6-12z" fill="#775847"/>
<path transform="translate(1099,1748)" d="m0 0h56v22h-39l-22-1 1 11-2-1v-12l1-1 11-1 8-4-1-2-9-4-4-4z" fill="#969D96"/>
<path transform="translate(462 1e3)" d="m0 0 23 1 1 1v-1l8-1 4 3v2l-7 1v8l5 5 2 4 5 5 8 6 6 8 3 2v2l12 3 8 3 5 3 8-1 7-1h5v-2l9-2 5-2v-6l5-4 4-3 12 3v2h2l-1 2-9-4-4 1-4 2-2 8-7 3-3 3-7 1-1 1h-8l-6 2h-7l-11-3v-2l-6-2-11-6-9-7-3-4v-2l-4-2-6-4-2-5h-2l-10-10-8-3h-11l-11 2-11 1-10 4h-2l-1 4-4 1-4 10-4 2-3 8-8 7-5-2-2-3 1-3 4 4h2l6-8h2l1-5 4-4 4-9 10-10 12-4 8-1z" fill="#9B7963"/>
<path transform="translate(620,1209)" d="m0 0 2 1-6 3-10 1-5 4-2 3-10 5-3 3-7 3h-26l-18-2h-17l1 7-2 2-16 1-15-1-3 1-3 6-2 1h-36v2l-5-2-9-6 4-1 10 2h13l3-1-2-5 1-4 17-2 19 4 9 1h8v-9l2-1h8l7 2h38l18-2 8-3 7-5 5-5 7-1z" fill="#775847"/>
<path transform="translate(519,1452)" d="m0 0 4 1v5l-8 8-1 2h-2l-2 5-2 3-2 8-1 7v7l4 4v8l1 4-1 3-5-1-3-7-8-11-9-17-2-12v-10l5-1 5 5 10-1 12-6z" fill="#470F15"/>
<path transform="translate(694,1843)" d="m0 0 17 1v1l-7 1 7 5 5 3 4 3 14 5 10 5 6 2 22 3 22 2 20 1h33l12 2 8 2-5 9-4 1-2-6h-41l-24-3-38-5-10-3-17-8-12-4-12-2h-3l-2-3z" fill="#88908A"/>
<path transform="translate(589,1163)" d="m0 0h8l11 4 6 1h11l5 7 5 13 4 10h2l-1 7-1 6 1 3-4-1-6-4-14-1-1-4 8-7-2-5-13-9-21-14-1-4z" fill="#CDB39D"/>
<path transform="translate(718,2021)" d="m0 0 13 5 16 8 11 5 7 3 6 2 2 1v3h-76l2-4 7-11 7-1 4-1v-9z" fill="#7F8882"/>
<path transform="translate(682,1006)" d="m0 0 4 1 2 7v3l2-4 1 3 4-1 1 4 4-5 7-1 1 1v14l-4 11-7 9-6 4-11 4h-4l-1-6 1-2 1-23h2v-9l1-1-1-4 2-3z" fill="#1C1313"/>
<path transform="translate(591,1105)" d="m0 0 8 2 5 3v-3l5-1 6 3 9 5 4-1 3-3 5 7 3 8-1 4-2 5 3 4v3l4-1v2h2l3 4-1 8-2 3h-2l-2 4-1 6-10 1-3-3-13 1-7-1-6-5-9 2h-7v-2l9-1 1-5 4 1 5 5 9 3 8-1 5-1 8 3 4 1v-6l-6-5-6-12-2-1-1 3 2 4v5l-2 1-10-7v-2l-3-1-1-7 9-5 4 1 5 5h2l-2-9 4-4h2v-6h-6l-11-6-5-4-5-1 1 5-4 1-6-5-6-2z" fill="#9B7360"/>
<path transform="translate(645,1019)" d="m0 0 2 1-8 6-4 2 1 3 10 2 5-1 14 3 5 5 1 4-2 3-5 1-4 2-14-5h-8l-1 1-7-1-3-1 2 3 5 3v2h2l2 10 7 2 9 3 8 2 4 3-2 11-3-3v-2h-7l-2-3v-4h-6l-3-1-4-1-3-4-1-12h-2l-1-2-5-2-4-1-5-1v-5l-1-5 2-2 7-3 5-1 1-5 6-3z" fill="#724F40"/>
<path transform="translate(625 2e3)" d="m0 0 10 2 9 3v2l9 2 6 2h8l21-5 9-3 1 5 2 1v6l-6 8-6 5-10 1-10-2-7-4v-2l-3-1-12-1-7-6-3-4 3-3-7-1-5-1-3 1h-5v-2z" fill="#A9BBC5"/>
<path transform="translate(549,1110)" d="m0 0h8l4 3 2 5 7 1 9 4-2 7 5 1 9 6 3 9-6 1-5-3v-2l-5-1h-10l-6-6-7-1-4-4h-5l-1 1h-11l2-5 5-2 1-10z" fill="#9C7A64"/>
<path transform="translate(674 1e3)" d="m0 0h2l1 16-2 5-6 1-6-3-1-1-10 1 1 3 9 3 8 2 4 3 2 6v6l-2 4v8l-4 2-4 12-4-2-8-2-5-2-4-1-7-3-4-14 12-2 9 3 6 3 8 2 2-1 1-11-3-7-10-3-17-2-2-1v-2l10-7 9-2 7 1 7 2z" fill="#423533"/>
<path transform="translate(535,1135)" d="m0 0h15l3 6 9 3 20 4 8 5 1 1v6l-8 1-9-3-4-1-17-1-11-3h-12l-5-2 1-10 3-3h4v-2z" fill="#896251"/>
<path transform="translate(357,1605)" d="m0 0h2l-2 4-7 6-7 8-6 4-14 13-3 1-14 16-3 7 1 11 9 11v2h2l5 5 10 9 5 4v3l4 2 5 4v2l4 2 9 7 5 5 9 8 1 2 5 3 5 5v3h3l6 9v2l3 1 1 5-5-5-5-8-2-1v-2l-3-1-4-5-8-7-14-12-11-9-14-12-20-16v-2l-4-2-5-6-2-1v-3l-4-2-4-6 1-6 11-10 11-9 7-7 8-7 13-12 10-8 5-3z" fill="#433734"/>
<path transform="translate(585,1106)" d="m0 0 5 1 5 6 5 3 9 1 2-4 5 1 14 7-1 6-4 2-1 2h-7l-5 2-5-1-4-1-7-1-11-6-4-4-8-1-8-4 1-3 10-2 5-3z" fill="#886251"/>
<path transform="translate(480,1908)" d="m0 0 5 4 10 14 2 5 8 9v2l4 2 8 10 5 5 7 6 5 6 8 7 12 13 3 5 8 7 1 3h2l6 7v2h2l5 6 13 7-2 1-2 4-6-1-8-6v-2l-3-1-6-8-10-10-2 1-18-22-11-12-9-11-12-15-14-19-11-16z" fill="#443734"/>
<path transform="translate(412,1272)" d="m0 0 13 3 22 8 18 6 9 5v2h3v2l21 7 12 6 12 5 14 7v2l4 1 3 1 5 5 7 4 6 1 2 1v2l4 2 5 5 7 4 8 7v3h-5l-8-7-10-7-5-2v-2l-5-2-17-9-8-6-14-8-8-4-7-3-32-14-12-6-14-4-3-2-13-4-13-5-2-3z" fill="#651722"/>
<path transform="translate(1011,1781)" d="m0 0h29l12 3v3l-12 6-6 4-2-1 2-3h-2v-7l-13-2-5 2-13 1v3l-14 2-9 2-15 5-13 4-8 4-13 7-5 5-26 10-8 3-2-1 9-4 4-1v-2h2v-2l8-6 5-4 7-3 12-4 10-4 15-5h4v-2l6-2 10-2 11-3 6-3z" fill="#737C79"/>
<path transform="translate(602,1046)" d="m0 0 2 4h2l8 15 4 13v2l4-4 4 1 5 5 6 4 9 3 4-1 1-4-5-2-4-6-4-3v-2l-5-2-1-4h-2l-1-5h-2v-9h6v2h2l2 12 3 4h5l7 2 2 6 7 1 3 4h1l1 11v12l-2-1-2-6-7-5h-4l-2 2-8-3-8-4-4-3-3 1v7l-2 1-2-1-3-9-4-4-5-18-8-6z" fill="#9A735F"/>
<path transform="translate(564,1117)" d="m0 0h8l1 3h7l3 3 3 7 10 8 7 9 2 12 1 2-4-2-4-4-3-1-1 5-3 1-2-7-7-4-12-3-12-2-6-3-2-3v-3l-17 1v2l-6 1-1 6h-1l-1-7 3-6 7-2h11l3-1 5 1 2 4h7l4 4v2h12l5 2v2l5 2h6l-5-10-12-6 1-7-8-3-6-2z" fill="#9A725F"/>
<path transform="translate(331,1922)" d="m0 0h2l5 13 6 26 6 15 3 8 2 3 2 6 4 6 2 5v5l-3 1-10-3-3-8v-2h-2l-4-13-5-20-6-37z" fill="#3A3232"/>
<path transform="translate(731,1848)" d="m0 0h9l22 3 28 3 41 5v3l-8 2h-10l-11-1-28-1-8-1h-10l-13-3-12-6z" fill="#AAA597"/>
<path transform="translate(568,985)" d="m0 0 11 1 4 2v2l5 1 10 6 3 5 4 4 3 5-1 7-5 5 1 7-4 1h-6l-7 4h-2v2l-8 7-5 4-5 2-6 1v2l-4 1-13-4-8-5-3-1-1-4 8 2 3 1 1 2 9 2v-2h3v-2h3l1-4-5 1v-2l-5 1-1-2-4-2 2-1 9 1 1-3 4 1 1 1 2 9 10-2 2-4 3 1v-2l3-3 1-2h2l1-4 5-2-1-6v-4l6-1 8 1 1-4-5-8-2-4-5-2-6-4-7-4-11-3z" fill="#7F624F"/>
<path transform="translate(409,1769)" d="m0 0h2v3h2v3h2l6 11 7 10 4 5 4 4 7 9 3 2v2h2v2h3l7 9v2l4 2 5 6 2 5 4 1 10 11 6 9 8 8 4 5 2 1v2h2l6 7 10 8 13 13 2 4 1 3h-2v-2h-2l-4-4v-2l-4-2-12-10-2-1v-2l-4-2-8-9v-2h-2l-7-8-5-6-3-3v-2h-2l-5-6v-2h-2l-7-8-2-4-3-1-4-5v-2h-2v-2h-2l-9-11-5-4-8-10-5-4-9-12-7-17z" fill="#9B7360"/>
<path transform="translate(633,914)" d="m0 0h5l6 3v2l4 2 5 5 6 9 4 14 2 12 8 25 2 8v10l-2-4-1-5-6-20-5-15-4-15-4-8-6-8-5-6-2-1h-13l-4 1-1 3-5 4-4 4-15 10-9 5-10 4-6 2-12 7-11 6-6 4-6 7-3 1 2-4 5-8 10-5 8-5 9-5 10-6 6-2h4v-2l16-7 14-12 8-7z" fill="#453835"/>
<path transform="translate(471,787)" d="m0 0h6l-1 2-30 10-5 3-20 8-13 7-12 8-3 1-1 4-4 3h-2v2h-2l-1 3-8 7-4 2-2 5-3 1v2l-11 8-6 2 2-4 12-12 7-8 15-14 11-9 14-10 21-10 33-9z" fill="#221817"/>
<path transform="translate(365,990)" d="m0 0 4 3 1 5h2l1 3 8 4 5 2 6 5v2l5 2v5l2 1-1 2h2l1 2h2l2-4 6-2 3-3 4-10 3-3 21-2h17v1l-26 2-12 2-3 7-5 10-4 7-3 6-2 2-8-1-5-18-6-3-1-3-6-2-4 1-5-3-3-8-2 2-3 7h-2l-2 2v-17l1 3 5-1 1-7z" fill="#453835"/>
<path transform="translate(343,1061)" d="m0 0h2v3h2l6 11 15 2 1 4-3 3h-6l-4 3h-5l-5 10h-2l-1 4-4 8-3 16-1 7-4 10v7l-2 1v-2h-2l-3-19v-4l2-1 1-3h2l1-5h2l3-15 3-8 2-7 5-8 2-5v-5l-4-5z" fill="#9B7963"/>
<path transform="translate(874,1808)" d="m0 0h13l3 5-1 8-7 6-4 3h-3v2l-8 2 1 4-1 3 3 1-10 6-5 5-4 3-12-1-7-1v-4l10-6 19-4 1-4-1-4 5-4h2l2-5 6-7v-3l-6-2 1-2z" fill="#737C79"/>
<path transform="translate(876,1838)" d="m0 0 2 1-3 4 13 1 13-5 3-1h8l2 2-1 4-1 2 3 2-19 5-5 2-1-1h-5l1 4h-8l-3-2-1-1-4 2h-19l4-5 8-7z" fill="#7E8781"/>
<path transform="translate(1049,1748)" d="m0 0 10 1 2 3h-2l2 5 3 3 1 6-2 3-6 2-5 2h-19l-20 3-11 2-30 7-5 2-17 3-18 4-1-2 25-7 24-7 18-4 21-3 7-2 15-2 9-4 8-2-1-4-5-2h-9l-2-2 2-3z" fill="#50453D"/>
<path transform="translate(537,987)" d="m0 0 16 1v4l7 2 1 3h2l2 6 7 5-2 2h-7l-4 3h-2v2h-5l-4-3h-5v2h-2l3 4-1 9 1 6 12-1-1 4-9-1-5-3-2-10-1-6-2-1-1 5-5 3-1 1h-7l-10-4v-3l11-4 13-3h8l1-3 7 1 2 3 5-1-1-4-3-2v-6l-2-1-6-2h-6l-2-2-4-2-5-1h-7l4-2z" fill="#755746"/>
<path transform="translate(876,1975)" d="m0 0h8l1 3h-2l-1 4-5 3-7 2-3 1v2l-3 1-5 6-3 1-3 6-2 3h-2l-2 7-8 4-3 1-7 8-7 6h-2v2l-4 1 2-5-3-1 5-5 11-8 9-11 10-11 8-10 7-6z" fill="#ACBAC1"/>
<path transform="translate(628,927)" d="m0 0 12 3 7 10 4 9 8 16 5 14 2 2 4 13 1 1 1 8v14l-3 1-3-1-14 1-5 1 4-3 11-2h6l1-9-5-18-5-10-7-15-7-11-4-6v-2l-4-2-5-6-4-1-10 4-11 6-1 2-15 7-10 4-2-1 5-3 16-7 13-9 7-4 5-4z" fill="#724F40"/>
<path transform="translate(1085,1677)" d="m0 0 9 3 3 3 10 4 3 2v2l10 5 9 5 10 7 12 9 4-1v12l-7-1-15-5 4-1 11 3-2-4-24-12v-2l-5-1-9-9-10-5-12-8-2-5z" fill="#470F15"/>
<path transform="translate(419,1810)" d="m0 0h2l1 4 4 1v2l4 2 8 7 7 6 7 8 3 3 1 5h2v2l5 2 5 7 3 3 4 5v2h2v2h2l4 7 4 6 13 13 7 9 12 12 3 2v2l4 2 11 9v2l4 2 4 3v2l4 2 1 2-5-2-6-5v-2l-4-2-14-10-7-7-3-2v-2l-4-2-10-11-6-8-13-13-7-10-12-16v-2l-3-1-7-8-5-5v-2h-2l-7-8-6-4-4-6-3-1-3-5z" fill="#8A6251"/>
<path transform="translate(355,992)" d="m0 0h2l1 18 3 1 3-9h3l3 8 5 2 4-1 5 3 3 3 5 3 2 8-1 4-3-6-6 1-3-3h-4l-3 3-4-4-1-5-3-1-3 1-1 4v14l-5-1-4-4v-11l2-17v-7l-3 2 1-5z" fill="#866753"/>
<path transform="translate(280,1661)" d="m0 0 4 4 5 8 9 10 8 7 10 9-2 4-8-3-8-7-17-6-7-2-1-5 1-5 4-13z" fill="#191010"/>
<path transform="translate(332,1945)" d="m0 0h2l3 19 8 31v2h2l2 3 1 6 2 1v2l-14-3-6-21-3-17-2-20 2 2z" fill="#272727"/>
<path transform="translate(793,1839)" d="m0 0h8l9 2 2 4-7 3-1 3h11l5 2 24 3h26l5-2 3 2v1h7v-4h5l1 3-6 4h-11l-43-3-44-4-21-2v-1l16-1 2-6 5-3z" fill="#89918B"/>
<path transform="translate(1086,1729)" d="m0 0 4 2 1 3 3 2 2 9 20 1v1l-24 1v42l-3 7-9 10-9 7-18 10-20 8-14 5-4 2h-5l3-2 23-10 14-7 16-10 6-4 6-6 5-3 4-5 2-7v-21l1-6v-11l1-4-3-8-2-1z" fill="#6F7470"/>
<path transform="translate(365,1741)" d="m0 0 5 2 7 4 4 5 2 1v2l3 1 14 21v2h2l1 6-5-5-3-5-6-7-1-2-3 2-2-3-2 8-1 2-6 2-6 3-5 1-6 3 2-5 11-9 3-4-3-12-6-9z" fill="#1A1010"/>
<path transform="translate(722,2028)" d="m0 0h6l16 10 9 3 8 3 10 3v1h-49l1-5h-2l-2-3v-6z" fill="#6B7979"/>
<path transform="translate(1076,1696)" d="m0 0 8 1 25 11 16 8v2l-9-3-4-2h-14l11 7 6 6v2l-9-2-10-4h-6l-5-1-3-1 2-2h7l11 3-6-4v-2l-4-1-5-2-7-1-2-2-1-10z" fill="#481016"/>
<path transform="translate(624,1031)" d="m0 0m-1 1m-7 1h7v2l-5 2 1 7-1 3h8l2 2 4 2-4 1-1 8h2l1 5h2l1 4 5 2 5 5 3 4v2l5 1 1 4-4 3-6-1-5-5v-2l-4-2-5-5-3-8-4-4-2-6-6-8 1-14z" fill="#775847"/>
<path transform="translate(598,1159)" d="m0 0 4 1 5 4 9 1 11-1 4 3h9l-5 5v8l6 1 3-1 2 1-1 8-3 9h-3l-4-6-4-12-5-10-2-1h-10l-12-3-5-2h-8l-2 1 1 4 11 7 15 10 9 7-1 2-8-6-10-6-10-7-8-4-6-4 1-4 4-2 10-2z" fill="#AE8670"/>
<path transform="translate(324,1642)" d="m0 0h1l1 9 4 4 6 4 7 8 18 18 6 9 8 15 8 16 3 5-1 3v-2h-2l-7-13-5-7-6-11-9-11-5-5-14-12-7-8-5-5-3-5v-9z" fill="#8B6252"/>
<path transform="translate(335,1630)" d="m0 0h1v8l3 1v2l6 2 4 2 5 4v2h2l3 5v2l2 1 2 5 8 16 2 6 2 1 3 9 2 1 10 28 1 5-3-4-5-10-5-13-12-22-10-16-8-11-9-7-5-5v-8z" fill="#9A735F"/>
<path transform="translate(550,1466)" d="m0 0h14l2 2-6 8-7 2-10 2-6 3-14 2-6 3h-5v-5l6-5 12-5 13-4z" fill="#470F15"/>
<path transform="translate(789,1947)" d="m0 0h10l4 4 2 8-3 3-5-5-3-1h-12l-5 1-4 1h-9l-9-4h-8l-5 2-7-3-1-2h2v-2h43z" fill="#CDB5A0"/>
<path transform="translate(1033,1616)" d="m0 0 7 1v2l4 1 6 7 2 9 6 16 4 9v5l2 1-4 2-6-8-5-10-9-20-7-9z" fill="#50453D"/>
<path transform="translate(180,1346)" d="m0 0 2 2 1 9-1 3v5l-2 7v9l-2 7-2 5 3 9-1 4v5l-2-2-7-20-1-8 3-14 7-17z" fill="#492A2C"/>
<path transform="translate(508,1950)" d="m0 0 5 5 11 13 13 15 9 10 6 8 4 3 7 6 8 8 3 5 6 5 7 4 4-1 1-2 2 1-4 8-9-3-9-1-3-4 1-7h-3l-14-14-10-14-12-14-8-10-4-4-6-8-5-7z" fill="#271616"/>
<path transform="translate(620,1718)" d="m0 0 4 2 12 13 9 11 9 10 9 13 8 13 9 19 7 18 2 12-4-4-8-20-11-24-6-10-7-11-11-14-18-22z" fill="#F0EBE7"/>
<path transform="translate(543,1013)" d="m0 0h5l4 3 11 3 5 2 3 6v2l-2 1-1 5-1 2-4-1-2-4h-5l-7 2-5-1-2-4v-8-4l-1-3z" fill="#52473E"/>
<path transform="translate(706,1876)" d="m0 0 4 5 6 4 6 6 6 3v2l9 1 3 2 1 7 19 2v1l-21-1-21-2-4-8-1-5-3-1-4-11z" fill="#51463E"/>
<path transform="translate(623,1140)" d="m0 0 4 2 7 13 5 4-1 6-8-1-4-2-5 1-8 1-6-2-2-4 1-9 1-2 8 2 9 4-1-7-1-3z" fill="#8D6E59"/>
<path transform="translate(374,1830)" d="m0 0h8l9 4 8 4 4 5v5l-2 2-8-1-11-3h-9l-3-1 1-10z" fill="#737C79"/>
<path transform="translate(480,1908)" d="m0 0 5 4 10 14 2 5 8 9v2l4 2 8 10 4 7 14 14v2l4 2 6 7 2 1 3 5 9 11 9 8h-3l-5-3-3-3-2 1-18-22-11-12-9-11-12-15-14-19-11-16z" fill="#46282A"/>
<path transform="translate(568,2023)" d="m0 0h2l1 5h-2l3 5 9 1 8 3-2 10-1 1h-23l-2-6 2-14 2-2h3z" fill="#271616"/>
<path transform="translate(603,1215)" d="m0 0h2v2h-2v2h-2l-2 4-9 9-12 7-17 1-9 1-2 1 1 5-3 3-23 3-7 3v4l-9 1-3-2 1-4 2-3 16-3 13-1 4-2-2-7 1-1 28-2 10-2 12-7 8-7z" fill="#52473E"/>
<path transform="translate(304,1755)" d="m0 0 4 4 3 6 7 10v10h2v3l1-3v-9l-3-6v-3l-2-1v-2l3 1 4 8 4 5 3 10-4 9h-2l-1 2-7-13-11-14-7-9 2-2 1-5z" fill="#483C39"/>
<path transform="translate(633,1114)" d="m0 0 3 3 3 8-1 4-2 5 3 4v3l4-1v2h2l3 4-1 8-2 3h-2l-2 4-1 6-10 1-3-3-13 1-7-1-6-5-9 2h-7v-2l9-1 1-5 4 1 5 5 9 3 8-1 5-1 8 3 4 1v-8l2-4 3-1v-3l-7-1-6-14 1-4 3-3h3l-4-11z" fill="#9B7963"/>
<path transform="translate(690,1828)" d="m0 0h22l-2 2 6 3 7 6-1 4-27 1-3-7z" fill="#737C78"/>
<path transform="translate(577,1278)" d="m0 0 7 2 2 5 5 3 3 3 5 2 5 3 6 7 2 1v3l4 2 3 3 5 2 4 4 1 4h-4l-6-4-4-2-1-4-6-2v-2l-3-1-1-3-2-1v-2l-4-1-7-1-3-3-4-2-3-5-5-5-2-3z" fill="#651722"/>
<path transform="translate(585,1107)" d="m0 0 4 1v8l13 4 9-2 4-2 11 7-3 2-7 3h-8l-9-3-7-1-5-2-3-3-11-2v-4l7-3z" fill="#765746"/>
<path transform="translate(1150,1746)" d="m0 0h5v2h-56l2 6 5 2 7 3v3l-8 4-11 1v23l-2 7-5 3 2-4 2-6v-35l1-7 3-1z" fill="#858D87"/>
<path transform="translate(334,1040)" d="m0 0 2 1 3 12 7 13 2 2-1 7-5 10-2 2-3 12-4 15-1 2h-2l-1-10 2-16 4-4-1-3v-9l2-2 4 2 1-10-5-12-2-8z" fill="#3A3232"/>
<path transform="translate(536,1137)" d="m0 0 10 1 10 8 7 5v2h-10l-7-2h-18l-2-5 2-5 5-3z" fill="#6F4E3F"/>
<path transform="translate(550,1111)" d="m0 0 8 1 5 6 7 1 3 5-4 5-2 4-11-2-7-6-3-7 1-5z" fill="#B08771"/>
<path transform="translate(607,1011)" d="m0 0h1l-1 7-5 5 1 7-4 1h-6l-7 4h-2v2l-8 7-5 4-5 2-6 1v2l-4 1-13-4-8-5-3-1-1-4 8 2 3 1 1 2 9 2v-2h3v-2h3v6l8-4 10-4 5-5 7-8 7-2 2-7 9-4z" fill="#8B6252"/>
<path transform="translate(400,815)" d="m0 0 2 1-2 6-5 4h-2l-1 4-4 3h-2v2h-2l-1 3-8 7-4 2-2 5-3 1v2l-11 8-6 2 2-4 12-12 7-8 15-14 11-9z" fill="#2B1B1B"/>
<path transform="translate(1071,1712)" d="m0 0h4l3 6 3 1v5l-8 4h-2l-4 16-3 5-9-2v-3l9-18 4-7z" fill="#010202"/>
<path transform="translate(873,1807)" d="m0 0h5l-8 4-18 3-28 6-30 3-50 4-18 1h-21v-1l87-7 40-5 23-4z" fill="#6F7572"/>
<path transform="translate(292,1669)" d="m0 0 5 4 9 11 3 3 5 3 8 7v2l5 2v2l5 2 3 2v2l4 2 5 4v2l4 2 9 7 5 5 9 8 1 2 5 3 5 5v3h3l6 9v2l3 1 1 5-5-5-5-8-2-1v-2l-3-1-4-5-8-7-14-12-11-9-14-12-20-16v-2l-4-2-5-6-2-1v-3l-4-2-2-3z" fill="#46282A"/>
<path transform="translate(450 1e3)" d="m0 0h15l-3 2-16 3-7 1-12 4-6 8h-2l-1 4-3 6-3 3-2 5h-2l-2 4-4 5-4-2-3-3-1-12 2 3v3h2v5l5-1 5-6 3-7 5-8 5-7 2-6 14-3z" fill="#8D6E59"/>
<path transform="translate(366,1016)" d="m0 0 4 2 2 8h3l2-3 5 1 2 2 6-1 4 7 1 4v8l-6-12-7-2v-2l-4-1-1 9-3-1v3l-4-1-6-2-3-3v-10l2-5z" fill="#9B7863"/>
<path transform="translate(697,1461)" d="m0 0 3 1-12 5-3 1h-7v2l-15 6-6 3-19 5-9 3-10 1v2l-8 1v2l-17 8-15 8-11 6-6 4-5 1 5-5 17-10 31-15 20-7 36-11 10-3v-2l10-2z" fill="#512127"/>
<path transform="translate(343,1061)" d="m0 0h2v3h2l6 11 15 2v3l-1 1h-7l-3-1-4 2-4-1-3 9-2 3h-2l-2 6-4 15-3 4-5 9h-4v-2l2-1 1-3h2l1-5h2l3-15 3-8 2-7 5-8 2-5v-5l-4-5z" fill="#7E5F4D"/>
<path transform="translate(650,1018)" d="m0 0m-3 1h3v2l-8 6h-2v2l19 2 10 3 3 4 1 5-1 10-4 2-11-4-9-4-11 1-2 1 1 3h-2l-2-3-5-3v-2l10 1 3-1 10 1 11 4 4-3h4l1-3-2-5-6-3-12-2-7 1-8-3v-4l8-5z" fill="#52473E"/>
<path transform="translate(614,1178)" d="m0 0h7l7 4 5 9 3 4 2 7 2 3-1 6v3l-6-7-2-1-9-1 1-4 5-1-4-10-8-6-2-3z" fill="#FDFDFD"/>
<path transform="translate(755,1330)" d="m0 0 4 2 14 19 13 18 12 17 15 20 2 5-7-6-8-10v-2h-2l-3-4v-2h-2l-10-14-9-13-7-10-9-14z" fill="#6E2029"/>
<path transform="translate(613,1022)" d="m0 0 5 1 7 3-1 2-9-2-2 10-2 4 1 9 4 2 6 10 1 4 3 2 3 8 5 5 7 6-4 1-6-6v-2l-4-1-5-7-6-3-4-10-2-3-1-3-1-17 3-2-1-9z" fill="#8A6251"/>
<path transform="translate(872,1989)" d="m0 0 6 1-1 3h2l2 5-1 1-2 9-12 13-6 1 3-10 2-3h2l1-13z" fill="#707875"/>
<path transform="translate(1065,1648)" d="m0 0 14 7 21 10 14 10 10 9-2 1-9-4-11-7-6-4-8-3-6-5v-2l-9-1-7-8z" fill="#96323E"/>
<path transform="translate(449,1253)" d="m0 0 5 2 16 8 19 4 5 4 20 2 4 6 9 2 1 3-6 3h-12l4-3-4-6-9-2-9-1-6-2v-2l-6-2-16-6-11-6z" fill="#896151"/>
<path transform="translate(560,991)" d="m0 0 7 1 17 4-2-3 5 2 8 5 1 3 2 1v7l-4-1-4-3v-2l-6-2-2-1v2h-5l-5-3h-5l-2-4-5-2z" fill="#52473E"/>
<path transform="translate(1076,1690)" d="m0 0 9 1 8 5 13 5 16 8v2l5 2 3 4-8-1-19-10-19-8-9-3-2-4z" fill="#942B3A"/>
<path transform="translate(294,1226)" d="m0 0 2 1v2l7 6 16 3 5 3v2h2l-1 7-1 1h-7l-5 1-2-2 1-5 1-2-6-2-1-4h-9l-9-3 6-7z" fill="#3A3232"/>
<path transform="translate(565,1649)" d="m0 0h3l7 12 6 9 7 10 4 6v3l-6-1-9-9-6-10-7-16z" fill="#AAA597"/>
<path transform="translate(606,1202)" d="m0 0 3 2 2 5 8-1h11l1 2h-11l-10 2-7 1-5 5-11 7-4 1h-13l-14-1-3-2 6-2 16 1 9-1 8-4 6-6 1-3h2l2-5z" fill="#8D6E59"/>
<path transform="translate(627,1051)" d="m0 0h6v2h2l2 12 3 4h5l7 2 2 6 7 1 3 5v5l-2-3v-2l-5 1-4-4-3-4-3 1 5 5-1 2-5-2-4-6-4-3v-2l-5-2-1-4h-2l-1-5h-2z" fill="#8D6D58"/>
<path transform="translate(922,1879)" d="m0 0 1 3-7 11-3 9-1 1-2 10h-2v5l8 3 10 2v1l-11-1-12-2-4-2 1-7 11-19 5-9z" fill="#50443C"/>
<path transform="translate(520,990)" d="m0 0 3 1-6 3h-4v2l-20 5-56 5-8 2h-6l-1 6-12 18-3 7-5 5-4-1v-5h6l3-5 4-8 5-8 3-8 2-3 12-2 46-4 15-2 5-2 11-1v-2z" fill="#755444"/>
<path transform="translate(344,987)" d="m0 0h1l-1 11-1 1-1 8h2l1 2 4-1-2 9-3 3-3-2-2-9-2 2-1 4v23l3 7 4 12-1 4-5-10-2-10-2-6v-17l5-23 3-5z" fill="#8B6A57"/>
<path transform="translate(311,1210)" d="m0 0 6 2 16 3 13 6 17 7v2h2v2l6 2-3 1-31-15-12-4-5-1-1 6-5-1v-2l-4-1-4 5h-2l-2 4-5 1-2-2 14-14z" fill="#926857"/>
<path transform="translate(355,992)" d="m0 0h2l1 18 3 1 3-9h3l3 8 5 2 4-1 5 3 3 3 5 3v2l-11-2-6-3v2l-3-1-1-3-6-3-3-2-2 11-4 1v2h-2v-10l1-18-3 2 1-5z" fill="#765545"/>
<path transform="translate(572,1172)" d="m0 0h9l7 4 3 2-2 5-5 3-10-1-9-3v-5l2-2h3v-2z" fill="#8F6C59"/>
<path transform="translate(583,1104)" d="m0 0h8l1 3 6 2 5 4h3v-5h5l5 4 11 6 6 1v6l-4 4h-2l2 5v4l-3 1-5-6-3-2 4-1 2 1 1-3 3-1 2-6-9-3-6-4-5 1-1 2h-9l-7-5-5-5-7 1-4 1 4-4z" fill="#996959"/>
<path transform="translate(589,1163)" d="m0 0h8l11 4 6 1h11l4 5-1 2-7-1h-7l-8-4-9-1 2 4 4 4 7 4 3 4-5-2-21-14-1-4z" fill="#C0A188"/>
<path transform="translate(536,1015)" d="m0 0 3 1 2 14 3 4v5h-13l-9-4v-3l6-3 3-3 2-6h2z" fill="#9A715F"/>
<path transform="translate(365,995)" d="m0 0 3 2 2 5v4l4 1 2-1 11 7 4 1 3 5 5 10 3 3 1 4 3-1 1-2-1 4-2 2-8-1-5-18-6-3-1-3-6-2-4 1-5-3-3-8-3 2 1-7z" fill="#52473E"/>
<path transform="translate(689,1013)" d="m0 0 2 3 4-1 1 4 4-5 3-1v3l-1 2h-2l-1 4-3 5v12l-5 3-2-1-3-8v-14h2z" fill="#261616"/>
<path transform="translate(865,2034)" d="m0 0 3 1 1 4 6 2 2 6-1 1h-30l1-3 11-7z" fill="#6B7979"/>
<path transform="translate(643,1049)" d="m0 0 7 1 12 6 4 5 1 8h-3l-3-5-3 1-5-3-6-1-7-6-1-4z" fill="#242424"/>
<path transform="translate(727,1932)" d="m0 0 2 3 3 6 3 2 30 4 14-2h14l-1 2-5 2-8 1h-34l-13-2-4-8z" fill="#090909"/>
<path transform="translate(1095,1739)" d="m0 0h22l18 2 7-1-1 5-1 1h-12l-30-1-3-2z" fill="#010202"/>
<path transform="translate(588,1039)" d="m0 0 12 3v2h2l-1 2-9-4-4 1-4 2-2 8-7 3-3 3-7 1-1 1h-8l-6 2h-7l-11-3v-2l-6-2-5-3 1-2 18 6 5 3 8-1 7-1h5v-2l9-2 5-2v-6l5-4z" fill="#9C7A64"/>
<path transform="translate(633,1051)" d="m0 0 3 1 2 10 7 2 9 3 8 2 4 3-2 11-3-3v-2h-7l-2-3v-4h-6l-3-1-4-1-3-4-1-12h-2z" fill="#7F5F4D"/>
<path transform="translate(1139,1732)" d="m0 0h2l2 3 1-1h5v2h6v10l-5 1h-34l-20-1v-3l6 1 38 1 2-3-1-5z" fill="#2B2827"/>
<path transform="translate(610,1221)" d="m0 0h9l1 6 1 5-1 2-7 1-11 3v-2l-2-1 3-8z" fill="#745343"/>
<path transform="translate(362,1032)" d="m0 0 2 1v2h5l5 3v-3l3 1 3 7v6l-1 2h-2v2h-5l-3-9h-5l-2-2-2-1-1-5h3z" fill="#9B7360"/>
<path transform="translate(556 2e3)" d="m0 0 7 6 8 8 3 5 6 5 7 4 4-1 1-2 2 1-4 8-9-3-9-1-3-4 1-7h-2l-4-7-8-9z" fill="#242323"/>
<path transform="translate(789,1947)" d="m0 0h10l4 4v8l-8-4-11-1-3-1-2 1-23-1-11-1v-1l20-1h22v-2z" fill="#F1F2F3"/>
<path transform="translate(596,1035)" d="m0 0h10l3 3 1 14 2 5 4 9 2 2 6 4 3 4v2l4 1 3 5-4-2-5-5h-3l-2 3h-2l-6-17-7-13 1-11h-9l-6-2v-1z" fill="#936B59"/>
<path transform="translate(878,2009)" d="m0 0 3 1-1 5-8 7-2 4-12 5-5 5-7 3-3-1v-5l5-2 7-5 9-1 11-12 1-2h2z" fill="#AABCC6"/>
<path transform="translate(583,2035)" d="m0 0 6 2-2 10-1 1h-20l2-4 5-5z" fill="#1A1111"/>
<path transform="translate(317,1642)" d="m0 0 2 1-10 10-5 7-1 9 2 7 8 10v2h2l5 5 10 9 5 5-8-4-8-8-12-11-4-5v-2h-2l-4-7v-6l6-8z" fill="#51463D"/>
<path transform="translate(524,1145)" d="m0 0h1l1 6 5 1h11l11 3 17 1 11 3 4 3-9-2-4-1-2 6-6-1-4-3-16-6-18-1-4-5z" fill="#986959"/>
<path transform="translate(1097,1712)" d="m0 0h15l4 3-3 1-1 5h2l3 7-1 1-12 1-10-4-1-5 6 1 9 4 7 2-6-7-12-8z" fill="#271616"/>
<path transform="translate(558,1091)" d="m0 0 4 1-1 5 3 9 2 3 2 1 3-1 5 1v1l-10 2v2l4 2h-6l-3-6-7-3v-8l-2-1 1-5z" fill="#986959"/>
<path transform="translate(526,1012)" d="m0 0h9v5h-2l-1 4-3 3h-7l-10-4v-3l11-4z" fill="#735141"/>
<path transform="translate(545,1007)" d="m0 0 7 1 2 3 3 1v3h-5l-4-3h-5v2h-2l3 4-1 9 1 6 12-1-1 4-9-1-5-3-2-10-1-6-2-1-1 5h-2v-3h2l-1-4-4-2 10-1h4z" fill="#775847"/>
<path transform="translate(489,1267)" d="m0 0h10l8 2 1 1h7l3 2 1 5 10 2 4 4-1 4-3 1h-13v-1l9-2 1-3-4-1-7-3-1-5h-11l-9-1-3-2v-2z" fill="#775847"/>
<path transform="translate(649,1110)" d="m0 0h4l3 6 1-3 5-1 3 1-1 8-6-1 2 6-5 4-2-3-1-7-4-1-2-3 1-5z" fill="#C0A188"/>
<path transform="translate(607,1147)" d="m0 0 8 2 5 4 2 5-4 1-1 3h-8l-4-4 1-9z" fill="#886251"/>
<path transform="translate(853,1842)" d="m0 0h5l-3 2h-5v2l-7 2-1 6 6-1 2-4 11-4 3-2-2 4-8 7-3 2-12-1-7-1v-4l10-6z" fill="#747D79"/>
<path transform="translate(648,1034)" d="m0 0h5l2 7-1 2 4-1 5-5 4 1 2 3v3h-7l-2 4-3-2v-2h-7l-9-3-1-5 7-1z" fill="#775847"/>
<path transform="translate(529,1449)" d="m0 0 7 1v8h-2v6l-7 5h-7l1-4 4-2 2-11z" fill="#952939"/>
<path transform="translate(622,1209)" d="m0 0h7l7 3 2 3-4-1-1 2-2-1v3l-10 2-5-1-3-4h-8l1-2 13-2z" fill="#493230"/>
<path transform="translate(633,1174)" d="m0 0h1l1 6 6 1 3-1 2 1-1 8-3 9h-3l-4-6-4-12-1-4h3z" fill="#AEA292"/>
<path transform="translate(728,2034)" d="m0 0 15 6 6 1v2l4 2 1 3h-18l-6-8-2-3z" fill="#6E726F"/>
<path transform="translate(951,1861)" d="m0 0h9l6 4 2 4 3 3-9-1-13-3-11-1 3-2z" fill="#868E88"/>
<path transform="translate(620,1209)" d="m0 0 2 1-6 3-10 1-5 4-2 3-14 7-3 1-16 1-21-1v-1l19-1 19-2 8-3 7-5 5-5 7-1z" fill="#7F624F"/>
<path transform="translate(343,1061)" d="m0 0h2v3h2l2 3v7l-5 14-5 10-2 12-2 5-7 12h-4v-2l2-1 1-3h2l1-5h2l3-15 3-8 2-7 5-8 2-5v-5l-4-5z" fill="#755444"/>
<path transform="translate(316,1764)" d="m0 0 3 1 4 8 4 5 3 10-4 9h-2l-1 2-2-4v-19l-3-6v-3l-2-1z" fill="#3B3333"/>
<path transform="translate(637,1047)" d="m0 0 5 1-4 2 1 4 4 5 8 2h3l1 2 4 1h3l2 5h2v3l-4-2-8-2-5-2-4-1-7-3-4-14z" fill="#453835"/>
<path transform="translate(347,979)" d="m0 0 2 3-2 6-2 2h-2l-3 2-3 11-3 15-1 16h-1v-23l4-20 7-9z" fill="#453A36"/>
<path transform="translate(552,1016)" d="m0 0 1 2 7 1 5 3v5l-2 2-9 2h-5l-2-3v-7l2 1v2l8 1v2h2l-5-5-6-4z" fill="#433734"/>
<path transform="translate(544,1035)" d="m0 0 5 2v2l5-1 5 1-1 4h-3v2h-3v2l-9-1-1-3-9-2v-2l9-1 2 1z" fill="#8D6D58"/>
<path transform="translate(369,1017)" d="m0 0 6 2v-2l5 1 6 2 4 1 3 3 1 8-2-1-2-5-6 1-3-3h-4l-3 3-4-4z" fill="#8B6C57"/>
<path transform="translate(548,1132)" d="m0 0 3 1 2 5 5 1 5 3 12 2 13 5 3 3-1 2-5-3-3-2-12-3-12-2-6-3-2-3v-3l-17 1v2l-6 1 3-3 4-2 11-1z" fill="#956A59"/>
<path transform="translate(561,1082)" d="m0 0h5l1 2-2 3-1 6-1 4 3 7 6 3 5-1 4-1-2 3h-2v2h-7l-3 1-3-2-3-9-1-4 1-4h-6l4-5v-4z" fill="#9B7460"/>
<path transform="translate(379,1823)" d="m0 0h15l12 1h20l2 6-37-4h-13l-5 1 3-3z" fill="#4F433C"/>
<path transform="translate(424,1374)" d="m0 0 4 2 8 12 10 12 8 10-3 1-2-4-3-1v-2l-3-1v-2h-2l-6-8-7-10-4-4z" fill="#480F15"/>
<path transform="translate(872,1989)" d="m0 0 6 1-1 3 2 1h-2v9l-1 2h-5l-3 5-4 2 1-3h2l1-13z" fill="#7B8580"/>
<path transform="translate(603,1215)" d="m0 0h2v2h-2v2h-2l-2 4-9 9-12 7-17 1-6-1 1-2 20-2 14-7 9-8z" fill="#51463D"/>
<path transform="translate(304,1365)" d="m0 0h2l5 17 7 19 5 15-1 4-3-7-5-14-1-3-2-2-2-12h-2l-4-12z" fill="#4A2629"/>
<path transform="translate(585,1162)" d="m0 0h5l-3 3 1 4 11 7 15 10 9 7-1 2-8-6-10-6-10-7-8-4-6-4 1-4z" fill="#B08771"/>
<path transform="translate(338,1006)" d="m0 0 2 3 1 9 4 2-3 10-3-1v-5l-2 1-1 13h-1v-23z" fill="#99725F"/>
<path transform="translate(365 1e3)" d="m0 0 2 1 3 8 5 2 4-1 5 3 3 3 5 3v2l-11-2-6-3v2l-3-1-3-6-2-1-2-3h-2l1-6z" fill="#724F40"/>
<path transform="translate(426,1014)" d="m0 0 1 2-3 6-3 3-4 10-4 2-3 8-8 7-5-2-2-3 1-3 4 4h2l6-8h2l1-5 4-4 4-9 5-5z" fill="#9B7862"/>
<path transform="translate(388,2026)" d="m0 0 6 1 16 9v2l-8-1-9-3-3-2-8-1-1-3z" fill="#A19F94"/>
<path transform="translate(427 1e3)" d="m0 0 4 1-8 1-1 7-12 18-3 7-5 5-4-1v-5h6l3-5 4-8 5-8 3-8 2-3z" fill="#745343"/>
<path transform="translate(254,1688)" d="m0 0 3 1 2 10 5 7v2h2l2 6-4-1-10-13-4-7v-4z" fill="#211818"/>
<path transform="translate(226,1577)" d="m0 0 3 2 2 5 3 4 1 4 3 1v9h4l1 5-3 1 1 3h-2l-4-7v-2h-2l-2-12-3-4-2-5z" fill="#631722"/>
<path transform="translate(568,1149)" d="m0 0 13 1 7 3 1 5-5 1-4-2-10-2-2-2z" fill="#735141"/>
<path transform="translate(701,1959)" d="m0 0 1 3-6 19-1 8v17l-2 3-10 1 4-1v-5h2v-2h2l2-18 6-20z" fill="#AAA597"/>
<path transform="translate(736,1949)" d="m0 0h51v1l-5 1h-23l-3 1 1 2h-10l-5 2-7-3-1-2h2z" fill="#B6AFA7"/>
<path transform="translate(450 1e3)" d="m0 0h10v1l-22 3-11 3-8 10-6 10-4 5 1-5 6-10 5-7 2-6 14-3z" fill="#82624F"/>
<path transform="translate(558,988)" d="m0 0h14l9 3 4 6-10-2-12-3h-7l-1-2z" fill="#463936"/>
<path transform="translate(1077,1708)" d="m0 0 3 2 9 2 7 3 7 7-9-2-10-2-5-2-2-5z" fill="#651722"/>
<path transform="translate(545,809)" d="m0 0 9 1 16 5v3h-12l-10-4v-2l-3-1z" fill="#0B0C0C"/>
<path transform="translate(357,1605)" d="m0 0h2l-2 4-7 6-7 8-6 4-14 13-2-1 13-13 7-8 10-8 5-3z" fill="#5B4B40"/>
<path transform="translate(1134,1693)" d="m0 0 8 5 8 1 5 4v10l-5-3-8-8v-2l-4-2-4-3z" fill="#A97D6A"/>
<path transform="translate(1060,1643)" d="m0 0 5 4 3 5v12l4 9v13l-4-2-1-4 1-5-2-10-1-12-4-5z" fill="#60423D"/>
<path transform="translate(327,1924)" d="m0 0 2 1 3 18v5l-3 3-2-3-2-15v-7z" fill="#1E1615"/>
<path transform="translate(530,1141)" d="m0 0 14 1 5 5-8 1-12 1v-7z" fill="#3B302F"/>
<path transform="translate(876,1975)" d="m0 0h8l1 3h-2l-1 4-5 3-7 1 2-4-4-1 1-1-2-2z" fill="#A5B4BB"/>
<path transform="translate(336,1116)" d="m0 0 1 3-1 6-1 7-4 10v7l-2 1v-2h-2l-2-15 6 1 2-12h2z" fill="#9E7C66"/>
<path transform="translate(426,1257)" d="m0 0 9 2 15 5 11 3 16 9 1 2-7-2-21-9-24-9z" fill="#8B6252"/>
<path transform="translate(1028,1798)" d="m0 0 2 1-5 6-19 11-20 9-11 4-3-1 19-8 17-8 15-10z" fill="#6F7470"/>
<path transform="translate(556,1032)" d="m0 0 4 1 1 1 2 9h5l-5 5-5 1v-8l1-2-5 1v-2l-5 1-1-2-4-2 2-1 9 1z" fill="#82624F"/>
<path transform="translate(600 1e3)" d="m0 0 2 1 3 7h-2v3l-5 1-4-1-5 1v3h-2l-5-6v-2l4-2 7 1 2 2 4 1z" fill="#775847"/>
<path transform="translate(519,969)" d="m0 0h5l1 8-5 2-9-1-2-1v-3l6-1v-2z" fill="#433734"/>
<path transform="translate(543,1013)" d="m0 0h5l3 4-2 1 10 7v2h-2v-2l-8-1-1-2v7l3 3h-4l-1-2v-7l-3 1v-6l-2-4z" fill="#54453C"/>
<path transform="translate(617,1221)" d="m0 0h2l1 6 1 5-1 2-7 1-11 3v-2l-2-1 2-7 3 4 1 2 5-1 3-8 3-3z" fill="#952939"/>
<path transform="translate(864,1841)" d="m0 0 1 2-6 4-9 3-2 4h-6l-1-3 2-4 7-1v-2z" fill="#6B7979"/>
<path transform="translate(647,1745)" d="m0 0 4 2 8 5 6 7v5l-4 1-10-13-4-5z" fill="#080707"/>
<path transform="translate(664,1082)" d="m0 0h1l1 11v12l-2-1-2-6-7-5h-4l-2 2-4-2 5-2 8-1 2-3 4 1z" fill="#9D7A65"/>
<path transform="translate(316,947)" d="m0 0h3l1 5-1 10-3 5h-2l-2-3v-3l-2-1 4-7v-4h2z" fill="#3A3232"/>
<path transform="translate(873,1807)" d="m0 0h5l-8 4-18 3-20 4-17 1 2-2 33-5z" fill="#6F7572"/>
<path transform="translate(1086,1729)" d="m0 0 4 2 1 3 3 2 2 9 20 1v1l-24 1v9h-2v-10l1-4-3-8-2-1z" fill="#78756E"/>
<path transform="translate(589,1019)" d="m0 0 2 2-1 5-5 1-1 4h-2l-2 5h-2v2l-4 1-1 2-8 3-3-1-1-5 2 2 6-1 3-3 6-2 1-3h2l1-5 1-3h5z" fill="#775847"/>
<path transform="translate(209,1501)" d="m0 0v3l-2 2 1 8 3 10v5l1 3-2 4-2-9-5-12v-2l-2-1 2-5z" fill="#672028"/>
<path transform="translate(580,1237)" d="m0 0 2 1-5 3-14 1-9 1-2 7-8 2-1-2 7-1-1-7 6-3h13l10-1z" fill="#453835"/>
<path transform="translate(374,1035)" d="m0 0 3 1 3 7v6l-1 2h-5l-5-11 1-2h3z" fill="#987560"/>
<path transform="translate(522,999)" d="m0 0 5 2 3 5-5 1v-2l-7 3-5 1-5-2 1-4 12-2z" fill="#9B7963"/>
<path transform="translate(670,1777)" d="m0 0 4 5 2 5 3 1 4 8 1 1v7l2 8h-2l-8-20-6-12z" fill="#0B0808"/>
<path transform="translate(545,1100)" d="m0 0 3 1 1 5-4 5-4 2-5-1 1-5 5-6z" fill="#966959"/>
<path transform="translate(336 1e3)" d="m0 0h1v8l-1 4v23l3 7 4 12-1 4-5-10-2-10-2-6v-17z" fill="#7F5A4A"/>
<path transform="translate(306,1267)" d="m0 0h25v1l-16 3-16 7v-2l4-4z" fill="#5C493E"/>
<path transform="translate(571,1253)" d="m0 0 5 1 6 5v4l-6-1-6-2h-9l4-3 5-3z" fill="#470F15"/>
<path transform="translate(890,1852)" d="m0 0m-5 1h5l1 3-6 4h-11l-18-1v-2l14-1 5-2 3 2v1h7z" fill="#88908A"/>
<path transform="translate(347,1071)" d="m0 0 1 2-6 12-2 2-3 12-4 15h-1v-12l3-7 1-5h2l1-7 5-6z" fill="#493D38"/>
<path transform="translate(635,1075)" d="m0 0 8 3 2 5 3 1v4l-7-1-4-3v-2l-4-2 1-4z" fill="#735242"/>
<path transform="translate(929,1831)" d="m0 0h6l1 5-5 3-10 1-1-3 6-5z" fill="#7F8882"/>
<path transform="translate(1084,1779)" d="m0 0 3 3-3 8-13 9-3-1 1-3 5-1 2-4 4-3 1-5h2z" fill="#242424"/>
<path transform="translate(591,1105)" d="m0 0 8 2 5 3v-3l5-1 6 3 9 5h4v2l-5 1-7-4-5-4-5-1 1 5-4 1-6-5-6-2z" fill="#9B7662"/>
<path transform="translate(442 1e3)" d="m0 0h17v1l-26 2-12 2-3 7-5 10-4 4 2-5 5-12 4-6 7-2z" fill="#52473E"/>
<path transform="translate(187,1337)" d="m0 0 2 4-5 20-2 2-1-5 1-4-1-10 3-5z" fill="#272626"/>
<path transform="translate(641,1168)" d="m0 0h4l1 3v7h-4l-3 3-3-2v-7z" fill="#FDFDFD"/>
<path transform="translate(644,1046)" d="m0 0 7 1 11 6 2 5-10-5-9-3-5 1 2 5 3 4-4-2-4-5 1-4h4v-2z" fill="#403231"/>
<path transform="translate(335,1114)" d="m0 0 2 2-2 6h-2v7l-2 5-4 1-2-2-1-6h3l5-9z" fill="#99725F"/>
<path transform="translate(618,1056)" d="m0 0 3 3 2 6 3 2 3 8 5 5 7 6-4 1-6-6v-2l-4-1-4-8-4-4v-6z" fill="#7F624F"/>
<path transform="translate(929,1948)" d="m0 0 8 1 8 3v3l-2 1-13 1-1-3h2z" fill="#4C4039"/>
<path transform="translate(613,1116)" d="m0 0 5 2 3 3v3l-4 2h-10l-3-3 5-2 3-1z" fill="#724F40"/>
<path transform="translate(563,2010)" d="m0 0 5 2 9 10v2l5 2 3 2 7 1-2 4-6-1-8-6v-2l-3-1-6-8z" fill="#3A3232"/>
<path transform="translate(524,1145)" d="m0 0h1l1 6 5 1h11l11 3 17 1-1 2h-17l-8-3-18-1-4-5z" fill="#8E6D59"/>
<path transform="translate(697,1461)" d="m0 0 3 1-12 5-3 1h-7v2l-15 6-6 3h-5l2-2h3v-2l17-6h2v-2l10-2z" fill="#512127"/>
<path transform="translate(653,1476)" d="m0 0 4 1-5 1v2l-23 7-13 2 2-2 21-7z" fill="#581B23"/>
<path transform="translate(627,1060)" d="m0 0h2l1 5h2l1 4 5 2 5 5 3 4v2l5 1 1 4-4 3-6-1-1-2 7 1-1-4-4-4v-2l-4-2-9-8-3-6z" fill="#846250"/>
<path transform="translate(637,1060)" d="m0 0 1 2 7 2 9 3 8 2 4 3-2 4-2-4h-6l-6-3-5-1-1-2h-5l-2-2z" fill="#6E5042"/>
<path transform="translate(549,982)" d="m0 0h10v2l9 1 11 3 7 4 11 7-1 2-17-10-14-4-9-1-2-2-5-1z" fill="#745343"/>
<path transform="translate(441,1251)" d="m0 0 4 1 8 6 5 3v2l-6 1-13-4v-1h6l-2-6z" fill="#9B7360"/>
<path transform="translate(308,1212)" d="m0 0 4 2 3 3h-5l-4 5h-2l-2 4-5 1-2-2z" fill="#7F5949"/>
<path transform="translate(510,1017)" d="m0 0 2 1 2 2 8 3h7l4-3-2 5-3 2-11-1h-4l-1-2-5-2 1-4z" fill="#866250"/>
<path transform="translate(642,1166)" d="m0 0h5v7h2l-2 10-1-2-8 1-4-2v-8l4-4zm-1 2-5 4v7l4 2 3-3h3v-7l-1-3z" fill="#CEB49E"/>
<path transform="translate(311,1210)" d="m0 0 6 2 16 3 1 3-14-3-1 6-5-1v-4l-5-5z" fill="#876150"/>
<path transform="translate(649,1156)" d="m0 0 2 1v2l2 1-4 13h-2l-1-6-3-1 2-5 2-4z" fill="#BB9F89"/>
<path transform="translate(504,2043)" d="m0 0 9 1 12 2 3 1v1h-26z" fill="#010202"/>
<path transform="translate(886,1978)" d="m0 0 10 6 1 2v10l-1-2-3 1-2-8-5-5z" fill="#7B8A8C"/>
<path transform="translate(627,1051)" d="m0 0h6v2h2v9l-3 2-1-3-4-1z" fill="#99735F"/>
<path transform="translate(501,1275)" d="m0 0 9 2 4 5 1 3-1 1h-10l-2-2h5l1-3-5-2-1 2z" fill="#8D6C58"/>
<path transform="translate(639,1184)" d="m0 0 6 1-1 7-2 6h-3l-2-4 1-9z" fill="#614C42"/>
<path transform="translate(529,1013)" d="m0 0h4l1 4-2 4-6 1-10-3 1-3h7l6 2-3-4z" fill="#51463D"/>
<path transform="translate(509,992)" d="m0 0 4 1h-3v2l-13 3-8 2-22 2h-8v-1l28-3z" fill="#50453D"/>
<path transform="translate(1044,1823)" d="m0 0m-1 1m5 0 2 1-12 5-19 7-4 2h-5l3-2 23-10 7-2z" fill="#6F7572"/>
<path transform="translate(1147,1737)" d="m0 0h8v9l-7 1-2-5-1-4z" fill="#534941"/>
<path transform="translate(357,996)" d="m0 0 1 3 6-2-1 11-2 3h-2l-2 2z" fill="#463A36"/>
<path transform="translate(374,1592)" d="m0 0 2 1-11 11-8 7-9 9v-3l6-7 9-9h2v-2z" fill="#9A7661"/>
<path transform="translate(253,1261)" d="m0 0 4 3-1 5-11 3-4-1z" fill="#564D45"/>
<path transform="translate(621,1210)" d="m0 0 1 2-1 2 3 1 1 4-4 1-5-1-3-4h-8l1-2 13-2z" fill="#58483E"/>
<path transform="translate(576,1174)" d="m0 0 5 2 2 3v4l-4 1-7-3-1-3z" fill="#8B6252"/>
<path transform="translate(372,2018)" d="m0 0 6 1 12 6-2 2-6 2-3 2-1-3 1-3-7-6z" fill="#A29F92"/>
<path transform="translate(782,1950)" d="m0 0m-23 0 23 1-3 3-23-1-11-1v-1z" fill="#FBFAF9"/>
<path transform="translate(989,1805)" d="m0 0h5l-2 4-8 4h-9l1-3z" fill="#747D79"/>
<path transform="translate(394,1032)" d="m0 0 2 3v3h2v5l5-1 5-6 1 2-2 5-5 6-4-2-3-3z" fill="#876753"/>
<path transform="translate(319,925)" d="m0 0h3l1 7-3 9-5-1 1-5 1-1z" fill="#3A3232"/>
<path transform="translate(529,1138)" d="m0 0 4 1-5 3-1 5 1 3h18l7 2-1 2-10-1h-12l-5-2 1-10z" fill="#836250"/>
<path transform="translate(982,1821)" d="m0 0 3 1-3 1v2l-13 5-9 1 3-3 15-6z" fill="#949B94"/>
<path transform="translate(294,1226)" d="m0 0 2 1v2l5 5v3l-7-1-7-2 6-7z" fill="#3D3232"/>
<path transform="translate(341 1e3)" d="m0 0h1v6h2l1 2 4-1-2 9-3 3-3-2-1-9 1 2h2l-2-3z" fill="#896955"/>
<path transform="translate(897,1988)" d="m0 0h1l2 10-1 7-2 6-2 16h-1l-2-14 2-4h2l1-9z" fill="#6B7776"/>
<path transform="translate(865,1979)" d="m0 0h5l-1 2 3 1-1 3-8 5h-2l-1-2-2-1 4-3v-3z" fill="#CBB7A6"/>
<path transform="translate(1126,1941)" d="m0 0h11l18 2v3l-28-2z" fill="#6B7777"/>
<path transform="translate(470,1229)" d="m0 0h2v2l-15 2 1 8-3 2h-13v-1l12-1 1-3-2-4 1-4z" fill="#7F624F"/>
<path transform="translate(584,1036)" d="m0 0h3l-1 3-9 6-1 3-5 4-5 2h-5l2-2 5-3 5-4 7-6z" fill="#926B59"/>
<path transform="translate(565,962)" d="m0 0 3 1-5 2v2l-4 3h-2v2l-6 4-4 4 2 2-6-1-1-2 6-4 10-9z" fill="#724F40"/>
<path transform="translate(620,1209)" d="m0 0 2 1-6 3-10 1-5 4-2 3-6 3-2-1 7-6 5-5 7-1z" fill="#7B5C4A"/>
<path transform="translate(572,1172)" d="m0 0h9l4 4-8-2-4 3h-3v2h-2v2l4 2-2 1-5-2v-5l2-2h3v-2z" fill="#986959"/>
<path transform="translate(564,1147)" d="m0 0h7l8 2v1l-11-1 2 6h-11l-6-1v-1h10l-4-5z" fill="#7F624F"/>
<path transform="translate(348,1079)" d="m0 0h9l-3 3-5-1-3 9-2 3h-2l-2 6-2 2 1-5 4-8 3-8z" fill="#886854"/>
<path transform="translate(672,1052)" d="m0 0h1l1 6-4 2-2 5-2-1-4-9v-2l7 1z" fill="#483C39"/>
<path transform="translate(407,1778)" d="m0 0 2 3 4 16 5 8 2 2v7l-2-1-10-21z" fill="#876050"/>
<path transform="translate(615,1069)" d="m0 0 2 1 2 4 2-3 4 2 2 5 4 1 3 5-4-2-5-5h-3l-2 3h-2l-3-8z" fill="#976959"/>
<path transform="translate(650,1020)" d="m0 0v3l-2 3 1 3 12 1 3 2-16-1-8-2v-2z" fill="#453835"/>
<path transform="translate(376,2034)" d="m0 0h21l4 2-19 1-12 2 1-3z" fill="#797F79"/>
<path transform="translate(376,2017)" d="m0 0 6 1 13 5 3 4-4 1-18-9z" fill="#070808"/>
<path transform="translate(718,1909)" d="m0 0h7l1 4-2 10-3-2-3-8z" fill="#040505"/>
<path transform="translate(1049,1628)" d="m0 0 4 4 7 10-1 3h-1l-1 4-5-10z" fill="#2A2A29"/>
<path transform="translate(768,1822)" d="m0 0h26v1l-34 3h-13v-1l19-2z" fill="#717976"/>
<path transform="translate(1058,1643)" d="m0 0 1 2h2l3 5 2 3v9l-4-5-4-7-1-6z" fill="#261515"/>
<path transform="translate(1087,1734)" d="m0 0 3 3 2 7-1 3v15l-3 7-2 3-3-1 2-3h2l1-5 1-4-1-19z" fill="#4D413A"/>
<path transform="translate(1048,1626)" d="m0 0 2 2 3 11 5 13h-3v-2h-2l-5-16-1-4z" fill="#413634"/>
<path transform="translate(522,1567)" d="m0 0 4 2 10 13 6 10v2h-2l-7-11-10-13z" fill="#361619"/>
<path transform="translate(382,1561)" d="m0 0 3 2 3 6 10 4v2l-8 5-1-7-4-4-3-6z" fill="#601C24"/>
<path transform="translate(363,1229)" d="m0 0 5 1 14 7 6 2v1h-8l-9-4v-2l-6-2v-2z" fill="#976C5A"/>
<path transform="translate(337,1101)" d="m0 0h1l-1 9-2 5-7 12h-4v-2l2-1 1-3h2l1-5h2l1-4h2l1-9z" fill="#7D5E4D"/>
<path transform="translate(609,1702)" d="m0 0h2v2h2l5 5 1 3h2v2l4 2 2 5h-3l-11-12-4-5z" fill="#0E0B0B"/>
<path transform="translate(645,1060)" d="m0 0 9 1 1 2 4 1h3l2 5h2v3l-14-7v-2h-5z" fill="#3E3433"/>
<path transform="translate(540,1013)" d="m0 0 3 1h-2l3 4-1 9 1 6 12-1-1 4-9-1-5-3z" fill="#765545"/>
<path transform="translate(568,985)" d="m0 0 11 1 4 2v2l5 1 10 6v2l-4-1-8-5-7-4-11-3z" fill="#896955"/>
<path transform="translate(1144,2006)" d="m0 0h2l1 6-1 6h2l-2 16-2-3z" fill="#453835"/>
<path transform="translate(535,1135)" d="m0 0h15l3 7-5-1-2-2-10-1h-3v-2z" fill="#856250"/>
<path transform="translate(525,1279)" d="m0 0 5 1 3 3-1 4-3 1h-13v-1l9-2 1-3z" fill="#765746"/>
<path transform="translate(426,1014)" d="m0 0 1 2-3 6-3 3-4 10-6 2 2-5 2-1 4-9 5-5z" fill="#9B7661"/>
<path transform="translate(561,1623)" d="m0 0 4 3 7 14 3 5-1 3-4-5-7-13-2-4z" fill="#291B1A"/>
<path transform="translate(530,1251)" d="m0 0h9l-4 2-11 3v3l-2 1-5-2 2-4z" fill="#453835"/>
<path transform="translate(343,998)" d="m0 0 2 1v3l3-1 2 1-1 6-4 2-1-3h-2v-8z" fill="#3D3432"/>
<path transform="translate(875,1831)" d="m0 0h8v3l-10 4-3-2 2-4z" fill="#6E726F"/>
<path transform="translate(529,1540)" d="m0 0 2 1-14 14h-2l-1 4-2-4 1-5 8-2z" fill="#462528"/>
<path transform="translate(489,1483)" d="m0 0h5l2 3-1 6-3 1-3-2-1-7z" fill="#291516"/>
<path transform="translate(530,1139)" d="m0 0h2v2l-2 1-1 7 10-1 11 2-4 1h-18l-2-5 2-5z" fill="#745444"/>
<path transform="translate(877,1994)" d="m0 0 4 2-3 12-5-1-2-1-1 4-2-1 3-5 5 1z" fill="#6C7776"/>
<path transform="translate(871,1865)" d="m0 0h8l-2 5-4 4h-3l-1-6z" fill="#A5A59D"/>
<path transform="translate(506,1524)" d="m0 0 2 1 1 5v8h-4l-1-2v-8z" fill="#480F15"/>
<path transform="translate(579,1505)" d="m0 0 2 1-3 1v2l-13 8-6 3-2-1 11-8z" fill="#551F25"/>
<path transform="translate(360,1022)" d="m0 0h1l1 14-5-1-4-4 1-2h3l2-6z" fill="#8C6956"/>
<path transform="translate(677,1025)" d="m0 0 3 3v8l-1 4v7l-3 7-1-4 1-2z" fill="#261616"/>
<path transform="translate(536,980)" d="m0 0 9 2-2 4-6 2h-6v-3l7-1v-2h-2z" fill="#463935"/>
<path transform="translate(511,1988)" d="m0 0h2l2 6 1 5-5-2v-2l-8-2v-2l4-1h4z" fill="#261515"/>
<path transform="translate(379,1823)" d="m0 0h15l12 1v1l-15 1h-13l-5 1 3-3z" fill="#4B3F39"/>
<path transform="translate(686,1813)" d="m0 0 6 5 3 8-4 1-4-6z" fill="#050404"/>
<path transform="translate(674 1e3)" d="m0 0h2l1 16-2 5-6 1-3-2 7-1 1-4z" fill="#403432"/>
<path transform="translate(372,1015)" d="m0 0h3l10 1 6 3 1 3-11-2-6-3v2l-3-1z" fill="#755545"/>
<path transform="translate(1053,1657)" d="m0 0 2 1v2h3l2-3 2 4v5l2 1-4 2-6-8z" fill="#443734"/>
<path transform="translate(357,1605)" d="m0 0h2l-2 4-20 16-2-1 11-10 6-5 4-2z" fill="#483B37"/>
<path transform="translate(514,1275)" d="m0 0 4 4 9 2 1 3-6 3h-3v-6h-3v-2h-2z" fill="#7F624F"/>
<path transform="translate(530,1141)" d="m0 0h2l-1 6 13-1-3-4 5 1 3 4-8 1-12 1v-7z" fill="#4F443C"/>
<path transform="translate(602,1046)" d="m0 0 2 4h2l4 8-1 3-6-4-1-5z" fill="#9B7862"/>
<path transform="translate(397,1029)" d="m0 0 4 1 2 6 3-1 1-2-1 4-2 2h-5l-3-9z" fill="#52473E"/>
<path transform="translate(333,1625)" d="m0 0 2 1-16 16-7 6-3-1 20-18z" fill="#3F3533"/>
<path transform="translate(569,1143)" d="m0 0 8 2 12 5 2 4-9-5-12-3-8-1v-1z" fill="#956A59"/>
<path transform="translate(361,1039)" d="m0 0 9 2 4 8v2h3v2h-5l-3-9h-5l-4-4z" fill="#9B7963"/>
<path transform="translate(566,963)" d="m0 0m-1 1m-2 1h2l-2 4-6 5h-2v2l-5 5 2 1-5-1v-3l8-6h2v-2l4-3h2z" fill="#775847"/>
<path transform="translate(551,2043)" d="m0 0h3v5h-17l1-2z" fill="#010202"/>
<path transform="translate(1077,1708)" d="m0 0 13 7v2h-7l-4-1-2-5z" fill="#884141"/>
<path transform="translate(606 1e3)" d="m0 0 9 6 7 3 8 1v2l-5 1-6-3-7-2-5-5z" fill="#9B7360"/>
<path transform="translate(985,1848)" d="m0 0h2l1 4-6 3-6-1-2-2z" fill="#6E726F"/>
<path transform="translate(1060,1643)" d="m0 0 5 4 3 5v20h-1l-2-19-4-5z" fill="#503030"/>
<path transform="translate(402,1572)" d="m0 0 3 1-8 6-9 7-2-1 6-7z" fill="#CBB09A"/>
<path transform="translate(350,1066)" d="m0 0 6 1 3 5v3l-6-1-3-6z" fill="#C0A188"/>
<path transform="translate(596,1035)" d="m0 0h10l2 3v7h-1l-1-6h-9l-6-2v-1z" fill="#996959"/>
<path transform="translate(863,2033)" d="m0 0m-1 1 1 2-11 7-5 3-1 2h-5v-2l16-9z" fill="#7F8882"/>
<path transform="translate(1134,1693)" d="m0 0 8 5 6 2 3 5-1 2-3-2-4-2-1-3-4-2-4-3z" fill="#9E6359"/>
<path transform="translate(547,1021)" d="m0 0 2 1v2l6 1 1 4-7 2-2-3z" fill="#242424"/>
<path transform="translate(360,1015)" d="m0 0h1v7l-2 2-1 7-5-2v-9l1 4h2v-2l3-1z" fill="#7F604E"/>
<path transform="translate(1041,1631)" d="m0 0 3 3 6 12 3 8-1 3-5-10-6-14z" fill="#453835"/>
<path transform="translate(1037,1620)" d="m0 0 4 1 4 5v5l-4-2-5-7z" fill="#6E726F"/>
<path transform="translate(1033,1616)" d="m0 0 7 1v3l-3 2 3 4v2l-4-2-3-4z" fill="#4C403A"/>
<path transform="translate(363,1024)" d="m0 0 7 2 1 2-1 3h-2v2l-4-1-1-4z" fill="#B08771"/>
<path transform="translate(651,1021)" d="m0 0h5l-4 2 1 3 9 3 4 2-11-1-6-1v-2l-2-1z" fill="#3A3232"/>
<path transform="translate(355,995)" d="m0 0h1l-1 19h-1l-2-10-2 2 1-6z" fill="#90705B"/>
<path transform="translate(520,990)" d="m0 0 3 1-6 3h-4v2l-7 2h-9l2-2 11-1v-2z" fill="#684E40"/>
<path transform="translate(1139,1732)" d="m0 0h2l2 3 1-1h5v2h6v1l-10 1 1 4-3-1-4-7z" fill="#3F3432"/>
<path transform="translate(549,1142)" d="m0 0 4 2 10 7v2h-10l-3-2h8v-2l-4-2z" fill="#775847"/>
<path transform="translate(347,1071)" d="m0 0 1 2-6 12-2 2-2 10h-1v-7l3-8 4-5z" fill="#52473E"/>
<path transform="translate(704,2042)" d="m0 0 10 4v2h-13z" fill="#6B7979"/>
<path transform="translate(937,1867)" d="m0 0 8 1 2 2-5 2h-8l1-4z" fill="#A7A79E"/>
<path transform="translate(1075,1810)" d="m0 0 2 1-9 7-11 6-2-1 10-7z" fill="#7F8882"/>
<path transform="translate(304,1365)" d="m0 0h2l3 14v3h-2l-4-12z" fill="#3F2D2F"/>
<path transform="translate(328,1246)" d="m0 0 2 1 3 8 3 1v2l-5-1-5-5v-5z" fill="#3A3232"/>
<path transform="translate(610,1221)" d="m0 0h7v3l-5 2-5 1-4 2 2-4z" fill="#704A3F"/>
<path transform="translate(625,1073)" d="m0 0h2v2l5 2 6 7 3 3-5-1-5-5v-2l-4-1z" fill="#876251"/>
<path transform="translate(334,1040)" d="m0 0 2 1 3 12 5 10v2l-3-1-5-12-2-8z" fill="#4C3B36"/>
<path transform="translate(506,997)" d="m0 0m-4 1 10 1v1l-18 2h-13v-1l12-1z" fill="#846250"/>
<path transform="translate(1088,1768)" d="m0 0h1l1 17h-2l-2-10 1-2-2-1z" fill="#52473E"/>
<path transform="translate(1080,1705)" d="m0 0 6 1 8 5-3 1-11-3z" fill="#201313"/>
<path transform="translate(497,1278)" d="m0 0h5l7 3-2 1v2h-5v-2h-5z" fill="#9A725F"/>
<path transform="translate(544,1102)" d="m0 0 3 1-1 5h-2v2l-5 1v-4z" fill="#8B6252"/>
<path transform="translate(637,1055)" d="m0 0 4 5 7 4 6 1 4 4-6-2-7-2-7-3z" fill="#52473E"/>
<path transform="translate(681,1047)" d="m0 0 4 2 1 5-2 1h-6l1-5z" fill="#080808"/>
<path transform="translate(704 1e3)" d="m0 0 3 3v7l-4 1-3-3 2-6z" fill="#2A2323"/>
<path transform="translate(347,979)" d="m0 0 2 3-2 6-1-3h-3l-2 4-3 1 2-5z" fill="#3D3433"/>
<path transform="translate(222,1303)" d="m0 0 3 1-1 7-5 5-1-3z" fill="#453835"/>
<path transform="translate(623,1195)" d="m0 0v3l-7 6 1 3h5l-3 2-4 1-4-2 2-4 7-7z" fill="#B08771"/>
<path transform="translate(427 1e3)" d="m0 0 4 1-8 1-1 7-5 3 1-7 3-4z" fill="#725040"/>
<path transform="translate(344,987)" d="m0 0h1l-1 11-2-3-4 8-1-4 3-8z" fill="#7B5B49"/>
<path transform="translate(618,1119)" d="m0 0 5 2 3 3-10 4h-8v-2l9-1 4-1v-3l-3-1z" fill="#775847"/>
<path transform="translate(471,787)" d="m0 0h6l-1 2-12 4-4-1 1-2z" fill="#241D1C"/>
<path transform="translate(1028,1798)" d="m0 0 2 1-5 6-9 5-3-1 10-7z" fill="#707572"/>
<path transform="translate(365,1733)" d="m0 0 6 4 12 11v2h2v2h-3l-3-5-4-4-4-2-5-5z" fill="#4F433C"/>
<path transform="translate(290,1287)" d="m0 0 1 3-1 12v6h-2l-1-4v-9z" fill="#483B37"/>
<path transform="translate(441,1251)" d="m0 0 4 1 6 8v1h-8l-4-2h6l-2-6z" fill="#9B7762"/>
<path transform="translate(306,1216)" d="m0 0h3l-2 6h-3l-2 4-5 1 2-4z" fill="#744A3F"/>
<path transform="translate(568,1149)" d="m0 0 13 1v1l-8 1 3 2 2 2-8-1-2-2z" fill="#765746"/>
<path transform="translate(545,988)" d="m0 0h8v4l7 2-2 1-11-2z" fill="#704E3F"/>
<path transform="translate(499,1977)" d="m0 0 4 2-1 4-4 2-3-2 2-4z" fill="#271616"/>
<path transform="translate(480,1908)" d="m0 0 5 4 10 14-1 2-9-12-5-5z" fill="#4E423A"/>
<path transform="translate(247,1674)" d="m0 0 3 1v2h2l1 6h-4l-3-6z" fill="#651722"/>
<path transform="translate(383,1240)" d="m0 0h7l5 2v2h2v2l5 1-3 1-16-7z" fill="#926656"/>
<path transform="translate(629,1222)" d="m0 0h5l-1 7-5 1z" fill="#744C3F"/>
<path transform="translate(552,1016)" d="m0 0 1 2h3v2l4 1 1 3-6-1-7-5z" fill="#403533"/>
<path transform="translate(469 1e3)" d="m0 0h12l-2 2-4 1h-10l-5-1v-1z" fill="#876854"/>
<path transform="translate(518,992)" d="m0 0 3 1-4 4h-2v2h-9l1-2 6-1v-2z" fill="#7E604D"/>
<path transform="translate(612,1152)" d="m0 0 3 1-1 7h-5l-1-4h2v-3z" fill="#775847"/>
<path transform="translate(548,1132)" d="m0 0 3 1v5l-1-3-17 1v2l-6 1 3-3 4-2 11-1z" fill="#8E6C58"/>
<path transform="translate(591,1105)" d="m0 0 8 2 2 3 4 1 1-3 1 5-4 1-6-5-6-2z" fill="#9B7460"/>
<path transform="translate(428,1243)" d="m0 0 6 1 10 6v1l-7-1-9-6z" fill="#946A59"/>
<path transform="translate(333,1216)" d="m0 0 9 3 7 4v2l-6-2-9-4z" fill="#936A58"/>
<path transform="translate(327,1155)" d="m0 0 3 1-1 5-4 6h-1v-6z" fill="#A07E68"/>
<path transform="translate(639,1020)" d="m0 0m-1 1v3l-6 2-1 5-6 3-2-1 8-8z" fill="#775847"/>
<path transform="translate(886,2041)" d="m0 0h5l1 7h-6l-1-6z" fill="#91AFC3"/>
<path transform="translate(311,1210)" d="m0 0 6 2 7 1v1h-5v2l-7-1-3-4z" fill="#956A59"/>
<path transform="translate(556,1032)" d="m0 0 4 1 1 5-5-1-7 1-5-3 2-1 9 1z" fill="#7A5C4A"/>
<path transform="translate(375,1017)" d="m0 0 5 1 9 3-4 3-9-5-1 4-3-3 1-2 2 1z" fill="#81624F"/>
<path transform="translate(577,957)" d="m0 0 3 1-8 5-5 3-2-1 4-5z" fill="#755444"/>
<path transform="translate(395,1243)" d="m0 0 12 2 3 3-5 1-8-3v-2z" fill="#9A6F5D"/>
<path transform="translate(623,1049)" d="m0 0 9 1-4 2-1 8h-2l-1-7z" fill="#846250"/>
<path transform="translate(543,1013)" d="m0 0h5l3 4-8 3-2-6z" fill="#52473E"/>
<path transform="translate(625 2e3)" d="m0 0 5 1 2 2-7 2h-6v-2z" fill="#B1B8B9"/>
<path transform="translate(1072,1680)" d="m0 0 5 5 1 3-5 2-1 3-1-2z" fill="#47171B"/>
<path transform="translate(729,1449)" d="m0 0 2 1-4 2-10 4-9 2 4-3z" fill="#541F26"/>
<path transform="translate(596,1221)" d="m0 0 2 1-8 7-6 3-2-1 4-3h2l1-3z" fill="#735242"/>
<path transform="translate(546,1018)" d="m0 0h2v11l3 3h-4l-1-2v-7l-3 1 1-5z" fill="#3F3533"/>
<path transform="translate(897,1988)" d="m0 0h1l2 10-1 7-2 6h-1l1-11z" fill="#707876"/>
<path transform="translate(1143,1741)" d="m0 0 4 1 2 4-1 1h-8l2-5z" fill="#242323"/>
<path transform="translate(374,1040)" d="m0 0 2 1v2h2v7h-3l-2-3z" fill="#7F604E"/>
<path transform="translate(392,1022)" d="m0 0 4 4 2 9v3h-2z" fill="#735242"/>
<path transform="translate(530,997)" d="m0 0 8 1 5 2-1 5-2 1v-4l-4-1-6-3z" fill="#8B6252"/>
<path transform="translate(506,1552)" d="m0 0 4 2 5 6-12-3 4-1z" fill="#B08771"/>
<path transform="translate(424,1254)" d="m0 0 11 2 4 3-4 1-11-4z" fill="#996D5B"/>
<path transform="translate(280,1239)" d="m0 0h2l1 6-9 2z" fill="#3A3232"/>
<path transform="translate(639,1184)" d="m0 0 6 1-1 6-3-1v-2h-3z" fill="#3E3633"/>
<path transform="translate(623,1140)" d="m0 0 4 2 2 5-2 1-2 3-3-8z" fill="#976959"/>
<path transform="translate(347,1085)" d="m0 0 2 4-5 7-1 3-4 2 2-6 4-5z" fill="#97715E"/>
<path transform="translate(412,1797)" d="m0 0 3 4 5 6v7l-2-1-6-13z" fill="#7C5A4B"/>
<path transform="translate(384,1752)" d="m0 0 4 5 3 4v2l3 1 1 5-5-5-5-8-2-2z" fill="#473130"/>
<path transform="translate(1109,1709)" d="m0 0 6 2 10 5v2l-9-3-4-2v-2l-3-1z" fill="#55121B"/>
<path transform="translate(1071,1695)" d="m0 0 5 3v5h-4l-1-2z" fill="#707672"/>
<path transform="translate(169,1374)" d="m0 0h1l3 12v3h-4l-1-8z" fill="#55453F"/>
<path transform="translate(341,1099)" d="m0 0 1 4-3 6-2 6h-1l1-8 1-6z" fill="#9A7560"/>
<path transform="translate(357 1e3)" d="m0 0 4 1 2-1-1 5-1 2h-2l-2 2z" fill="#52473E"/>
<path transform="translate(355,992)" d="m0 0h2v21h-1l-1-17-3 2 1-5z" fill="#684D40"/>
<path transform="translate(586,2042)" d="m0 0 1 2-1 4h-7l1-4z" fill="#020303"/>
<path transform="translate(987,1921)" d="m0 0 6 1v2l3 1-3 1h-6l-2-1z" fill="#6B7979"/>
<path transform="translate(1074,1696)" d="m0 0 3 1 1 2v9l-2 3v-5l-3-1 2-2v-5z" fill="#463331"/>
<path transform="translate(299,1656)" d="m0 0v3l-6 7-1 5-2-2 1-6z" fill="#3B3232"/>
<path transform="translate(345,1066)" d="m0 0 3 2-1 4-3 6-5 5 1-4 1-2h2l2-9z" fill="#453835"/>
<path transform="translate(892,1987)" d="m0 0h5v9l-1-2-3 1z" fill="#828E8C"/>
<path transform="translate(625,1084)" d="m0 0 2 1-1 1v7l-2 1-2-1-1-8z" fill="#9C7A64"/>
<path transform="translate(357,1079)" d="m0 0 3 2-4 3-8 1 1-4 7-1z" fill="#9B7360"/>
<path transform="translate(348,1079)" d="m0 0h9l-3 3h-6l-3 6-1-4 2-4z" fill="#896553"/>
<path transform="translate(539,1012)" d="m0 0 2 1v17h-1l-2-14-2-1v-2z" fill="#866251"/>
<path transform="translate(509,992)" d="m0 0 4 1h-3v2l-11 2h-6v-1z" fill="#443936"/>
<path transform="translate(568,985)" d="m0 0 11 1 4 2v2l3 1-3 1-4-3-11-3z" fill="#866452"/>
<path transform="translate(775,2012)" d="m0 0h3v7l-5-1 1-5z" fill="#7F8882"/>
<path transform="translate(470,1893)" d="m0 0 5 5 5 8v2l-3-1-7-12z" fill="#4A3F39"/>
<path transform="translate(374,1592)" d="m0 0 2 1-11 11-1-2 1-3z" fill="#A3806B"/>
<path transform="translate(245,1308)" d="m0 0 1 2-6 4 1 2-3 2-4-1 4-5z" fill="#242424"/>
<path transform="translate(636,1183)" d="m0 0h10l-1 3-6-1-2 8h-1z" fill="#937C6C"/>
<path transform="translate(630,1053)" d="m0 0h5l-1 7h-3z" fill="#AD856F"/>
<path transform="translate(374,1036)" d="m0 0 2 2-3 9-2-3-2-6h4z" fill="#8D6E59"/>
<path transform="translate(353,1014)" d="m0 0h1l-1 15-4-4 1-4h2z" fill="#8D6E59"/>
<path transform="translate(742,2044)" d="m0 0 6 1 3 3h-10z" fill="#52473E"/>
<path transform="translate(388,2026)" d="m0 0h2v3l4 1h-11l-2-2z" fill="#ADBBC2"/>
<path transform="translate(933,1951)" d="m0 0h2v2h5v2l-7 1h-4v-2z" fill="#6E726F"/>
<path transform="translate(1085,1773)" d="m0 0h2l1 12-2 1-1-6h-2l1-6z" fill="#453835"/>
<path transform="translate(637,1194)" d="m0 0 2 4h2l-1 6-4-4z" fill="#C9AD97"/>
<path transform="translate(579,1163)" d="m0 0 4 1-2 1 1 4 4 2-3 1-6-4v-4z" fill="#9C7A64"/>
<path transform="translate(536,1137)" d="m0 0 10 1 3 4-4-1-12-2z" fill="#775847"/>
<path transform="translate(331,1121)" d="m0 0 1 2-2 5-2 4h-3l-1-5h3z" fill="#8D6F5B"/>
<path transform="translate(583,1104)" d="m0 0h8v2l-10 2-4 1 4-4z" fill="#9A6E5C"/>
<path transform="translate(532,1020)" d="m0 0v3l-4 4-5-1-4-3h10z" fill="#82624F"/>
<path transform="translate(514,1020)" d="m0 0 7 1 4 1 6-1-2 3h-7l-8-3z" fill="#765746"/>
<path transform="translate(877,1994)" d="m0 0 4 2-2 10-2-3-1-4z" fill="#6D7B7A"/>
<path transform="translate(1148,1943)" d="m0 0h7v3l-17-1v-1z" fill="#6C7574"/>
<path transform="translate(690,1828)" d="m0 0h14v1l-9 2-3 1-1 2z" fill="#6F7775"/>
<path transform="translate(1035,1798)" d="m0 0m-2 1h2l-1 3-12 6-2-1 9-6z" fill="#4E433B"/>
<path transform="translate(555,1032)" d="m0 0 1 3-1 1-9-1-2-2z" fill="#724F40"/>
<path transform="translate(343,998)" d="m0 0h1l-1 8h6l-2 4-3-1v-2h-2v-8z" fill="#51433B"/>
<path transform="translate(890,1852)" d="m0 0m-5 1h5l1 3-5 3-2-5z" fill="#868D88"/>
<path transform="translate(1086,1729)" d="m0 0 4 2 1 3 2 2h-2l-1 4-2-5-2-1z" fill="#755848"/>
<path transform="translate(533,1581)" d="m0 0 3 1 6 10v2h-2l-7-11z" fill="#241616"/>
<path transform="translate(579,1505)" d="m0 0 2 1-3 1v2l-5 3-6 1 3-3z" fill="#5B1C24"/>
<path transform="translate(605,1260)" d="m0 0h5l2 5h-4l-2-1z" fill="#651722"/>
<path transform="translate(589,1109)" d="m0 0 3 4v2l4 2-2 1-6-2z" fill="#7F624F"/>
<path transform="translate(557,1109)" d="m0 0 5 2 2 7h5v1h-6l-2-2-2-5-2-1z" fill="#9B7561"/>
<path transform="translate(659,1072)" d="m0 0h3l3 4-1 7-2-1-2-8z" fill="#7C5E4D"/>
<path transform="translate(536,1010)" d="m0 0 3 1v2h-3l-1 7h-2v-3h2l-1-4-4-2z" fill="#7C5A4A"/>
<path transform="translate(341 1e3)" d="m0 0h1v6h2l1 2 4-1-1 4-4 1-3-5z" fill="#765645"/>
<path transform="translate(874,2008)" d="m0 0 3 1-7 8-1-4z" fill="#717E7C"/>
<path transform="translate(1087,1734)" d="m0 0 3 3 2 7-1 3h-2z" fill="#473D38"/>
<path transform="translate(345,1260)" d="m0 0 5 2-1 2-7 1-1-2 1-2z" fill="#3A3232"/>
<path transform="translate(444,1251)" d="m0 0 5 1 8 8-6-2-7-6z" fill="#966757"/>
<path transform="translate(337,1048)" d="m0 0 3 1 3 8-1 4-5-10z" fill="#825C4C"/>
<path transform="translate(343,985)" d="m0 0h3v5h-3l-3 2-2 3v-5z" fill="#5A483E"/>
<path transform="translate(1154,1699)" d="m0 0 1 2-2-1z" fill="#AAA597"/>
</svg>
